<svg width="22" height="12" viewBox="0 0 22 12" fill="none" xmlns="http://www.w3.org/2000/svg">
<path d="M0.292431 10.2927L10.2924 0.292676C10.3853 0.199699 10.4956 0.12594 10.617 0.0756159C10.7384 0.0252914 10.8685 -0.000609398 10.9999 -0.000609398C11.1313 -0.000609398 11.2615 0.0252914 11.3829 0.0756159C11.5043 0.12594 11.6146 0.199699 11.7074 0.292676L21.7074 10.2927C21.8951 10.4803 22.0005 10.7348 22.0005 11.0002C22.0005 11.2655 21.8951 11.52 21.7074 11.7077C21.5198 11.8953 21.2653 12.0007 20.9999 12.0007C20.7346 12.0007 20.4801 11.8953 20.2924 11.7077L10.9999 2.41393L1.70743 11.7077C1.61452 11.8006 1.50422 11.8743 1.38283 11.9246C1.26143 11.9749 1.13133 12.0007 0.999931 12.0007C0.868536 12.0007 0.738428 11.9749 0.617035 11.9246C0.495642 11.8743 0.385342 11.8006 0.292431 11.7077C0.19952 11.6148 0.125822 11.5045 0.0755386 11.3831C0.0252552 11.2617 -0.00062561 11.1316 -0.00062561 11.0002C-0.00062561 10.8688 0.0252552 10.7387 0.0755386 10.6173C0.125822 10.4959 0.19952 10.3856 0.292431 10.2927Z" fill="#533EE8"/>
</svg>
