<svg xmlns="http://www.w3.org/2000/svg" width="13" height="22" viewBox="0 0 13 22" fill="none">
  <path d="M10.5224 21.7074L0.522412 11.7074C0.429436 11.6146 0.355677 11.5043 0.305352 11.3829C0.255028 11.2615 0.229127 11.1314 0.229127 10.9999C0.229127 10.8685 0.255028 10.7384 0.305352 10.617C0.355677 10.4956 0.429436 10.3853 0.522412 10.2924L10.5224 0.292446C10.7101 0.104805 10.9645 -0.000610354 11.2299 -0.000610352C11.4953 -0.00061035 11.7498 0.104805 11.9374 0.292446C12.1251 0.480086 12.2305 0.734582 12.2305 0.999946C12.2305 1.26531 12.1251 1.5198 11.9374 1.70745L2.64366 10.9999L11.9374 20.2924C12.0303 20.3854 12.104 20.4957 12.1543 20.6171C12.2046 20.7384 12.2305 20.8686 12.2305 20.9999C12.2305 21.1313 12.2046 21.2614 12.1543 21.3828C12.104 21.5042 12.0303 21.6145 11.9374 21.7074C11.8445 21.8004 11.7342 21.8741 11.6128 21.9243C11.4914 21.9746 11.3613 22.0005 11.2299 22.0005C11.0985 22.0005 10.9684 21.9746 10.847 21.9243C10.7256 21.8741 10.6153 21.8004 10.5224 21.7074Z" fill="#533EE8"/>
</svg>