<svg width="32" height="32" viewBox="0 0 32 32" fill="none" xmlns="http://www.w3.org/2000/svg">
<g clip-path="url(#clip0_160_4890)">
<path fill-rule="evenodd" clip-rule="evenodd" d="M20.9427 15.0573C21.1927 15.3073 21.3331 15.6464 21.3331 15.9999C21.3331 16.3535 21.1927 16.6926 20.9427 16.9426L13.4001 24.4853C13.2771 24.6126 13.1299 24.7142 12.9673 24.7841C12.8046 24.854 12.6296 24.8907 12.4526 24.8923C12.2755 24.8938 12.1 24.8601 11.9361 24.793C11.7723 24.726 11.6234 24.627 11.4982 24.5018C11.373 24.3766 11.274 24.2278 11.207 24.0639C11.1399 23.9 11.1062 23.7245 11.1077 23.5474C11.1093 23.3704 11.146 23.1954 11.2159 23.0327C11.2858 22.8701 11.3874 22.7229 11.5147 22.5999L18.1147 15.9999L11.5147 9.39995C11.2718 9.14848 11.1374 8.81168 11.1405 8.46208C11.1435 8.11249 11.2837 7.77807 11.531 7.53086C11.7782 7.28365 12.1126 7.14342 12.4622 7.14038C12.8118 7.13734 13.1486 7.27174 13.4001 7.51461L20.9427 15.0573Z" fill="#533EE8"/>
</g>
<defs>
<clipPath id="clip0_160_4890">
<rect width="32" height="32" fill="white" transform="matrix(0 -1 1 0 0 32)"/>
</clipPath>
</defs>
</svg>
