<svg width="49" height="41" viewBox="0 0 49 41" fill="none" xmlns="http://www.w3.org/2000/svg">
<path d="M48 18.9105C48 22.4865 46.2757 25.6632 43.6024 27.6618C41.7639 29.0362 39.4792 29.8507 37 29.8507C34.5208 29.8507 32.2361 29.0362 30.3976 27.6618C27.7243 25.6632 26 22.4865 26 18.9105C26 12.873 30.9202 7.97015 37 7.97015C43.0798 7.97015 48 12.873 48 18.9105Z" stroke="#533EE8" stroke-width="2"/>
<path d="M9.4 13.5373H19.6M9.4 20.7015H19.6M23.8 33.2388H4C2.34315 33.2388 1 31.8957 1 30.2388V4C1 2.34314 2.34315 1 4 1H41.2149C42.8635 1 44.2 2.33646 44.2 3.98507V3.98507" stroke="#533EE8" stroke-width="2" stroke-linecap="round"/>
<path d="M29.8 27.2686V38.7884C29.8 39.531 30.5807 40.0145 31.2455 39.6838L36.5546 37.0424C36.8352 36.9028 37.1649 36.9028 37.4455 37.0424L42.7546 39.6838C43.4194 40.0145 44.2 39.531 44.2 38.7884V27.2686" stroke="#533EE8" stroke-width="2" stroke-linecap="round"/>
</svg>
