<svg width="32" height="32" viewBox="0 0 59 58" fill="none" xmlns="http://www.w3.org/2000/svg">
<g clip-path="url(#clip0_97_2587)">
<path d="M0.192383 11.4792C0.192383 9.14467 2.08705 7.25 4.42155 7.25H53.9632C56.2977 7.25 58.1924 9.14467 58.1924 11.4792V46.5208C58.1924 47.6425 57.7468 48.7182 56.9537 49.5113C56.1606 50.3044 55.0849 50.75 53.9632 50.75H4.42155C3.2999 50.75 2.2242 50.3044 1.43108 49.5113C0.637954 48.7182 0.192383 47.6425 0.192383 46.5208L0.192383 11.4792ZM4.42155 10.875C4.26131 10.875 4.10764 10.9387 3.99434 11.052C3.88104 11.1653 3.81738 11.3189 3.81738 11.4792V46.5208C3.81738 46.8543 4.08805 47.125 4.42155 47.125H53.9632C54.1235 47.125 54.2771 47.0613 54.3904 46.948C54.5037 46.8347 54.5674 46.6811 54.5674 46.5208V11.4792C54.5674 11.3189 54.5037 11.1653 54.3904 11.052C54.2771 10.9387 54.1235 10.875 53.9632 10.875H4.42155Z" fill="#533EE8"/>
<path d="M21.9424 37.6613V20.3386C21.9427 20.1219 22.0014 19.9093 22.1122 19.723C22.223 19.5367 22.3818 19.3837 22.5721 19.2799C22.7624 19.1761 22.9771 19.1254 23.1937 19.1331C23.4103 19.1408 23.6208 19.2066 23.8032 19.3236L37.2785 27.9826C37.4492 28.0919 37.5896 28.2424 37.6868 28.4202C37.784 28.5979 37.835 28.7973 37.835 29C37.835 29.2026 37.784 29.402 37.6868 29.5798C37.5896 29.7576 37.4492 29.9081 37.2785 30.0174L23.8032 38.6787C23.6208 38.7958 23.4103 38.8616 23.1937 38.8693C22.9771 38.877 22.7624 38.8263 22.5721 38.7225C22.3818 38.6187 22.223 38.4657 22.1122 38.2794C22.0014 38.0931 21.9427 37.8805 21.9424 37.6637V37.6613Z" fill="#533EE8"/>
</g>
<defs>
<clipPath id="clip0_97_2587">
<rect width="58" height="58" fill="white" transform="translate(0.192383)"/>
</clipPath>
</defs>
</svg>
