<svg width="58" height="59" viewBox="0 0 58 59" fill="none" xmlns="http://www.w3.org/2000/svg">
<path d="M33.0772 1.87341L29.4434 5.63197M29.4434 5.63197L33.0772 9.08984M29.4434 5.63197H38.2252C41.5562 5.63197 45.4824 8.56651 45.4929 12.2277C45.4929 12.2341 45.4929 12.2406 45.4929 12.247V13.9008" stroke="#533EE8" stroke-width="2" stroke-linecap="round"/>
<path d="M39.7392 30.5888C37.9142 31.9111 34.566 35.7893 35.4323 40.9043C35.4716 41.136 35.4385 41.3764 35.3269 41.5833L33.7197 44.5622C33.4512 45.0599 33.6485 45.6812 34.1551 45.9327L35.7014 46.7004C36.0416 46.8693 36.2567 47.2163 36.2567 47.5961V50.9374C36.2567 51.4896 36.7044 51.9374 37.2567 51.9374H39.9505C40.5028 51.9374 40.9505 52.3851 40.9505 52.9374V56.5C40.9505 57.0523 41.3982 57.5 41.9505 57.5H50.3978C50.9501 57.5 51.3978 57.0523 51.3978 56.5V49.4638C51.3978 49.1305 51.5645 48.8224 51.8299 48.6208C53.7856 47.1358 57 43.6215 57 39.1583C57 34.3473 53.4671 31.2403 51.7006 30.2881" stroke="#533EE8" stroke-width="2" stroke-linecap="round"/>
<path d="M21.5699 23.7254V20.5344C21.5699 20.1547 21.785 19.8076 22.1252 19.6388L23.9885 18.7137C24.4896 18.4649 24.6891 17.8533 24.4311 17.3568L22.6187 13.8701C22.5272 13.6941 22.4914 13.4926 22.5091 13.295C23.0729 6.98841 18.9601 3.36023 16.7247 2.32443C13.4946 1.07158 6.0957 0.309843 2.34071 7.28572C-1.23029 13.9198 3.13191 19.2667 6.12909 21.4126C6.40643 21.6112 6.58021 21.925 6.58021 22.2661V29.2881C6.58021 29.8404 7.02793 30.2881 7.58021 30.2881H15.8761C16.4284 30.2881 16.8761 29.8404 16.8761 29.2881V25.7254C16.8761 25.1731 17.3239 24.7254 17.8761 24.7254H20.5699C21.1222 24.7254 21.5699 24.2777 21.5699 23.7254Z" stroke="#533EE8" stroke-width="2" stroke-linecap="round"/>
<path d="M35.0793 27.2813H37.6195M36.2489 22L38.6794 23.222M40.2773 18L41.859 20.2152M45.6443 16.5V19.3131M49.7324 20.2152L51.3555 18M52.7606 23.222L54.8804 22M53.8205 27.2813H56.391M12.1825 34.197V43.9692C12.0311 46.525 14.7565 51.336 18.8446 51.4863H28.2321M28.2321 51.4863L24.5982 47.7278M28.2321 51.4863L24.5982 55.2449" stroke="#533EE8" stroke-width="2" stroke-linecap="round"/>
<path d="M44.2215 37.3541V37.3227L44.2195 37.2913C44.0542 34.6652 42.3227 32.6721 41.2995 31.4945C41.2306 31.4151 41.1648 31.3394 41.103 31.2675C40.214 30.2335 39.6792 28.8953 39.6792 27.4315C39.6792 24.171 42.3431 21.5158 45.6441 21.5158C48.9451 21.5158 51.609 24.171 51.609 27.4315C51.609 28.8877 51.0797 30.2196 50.199 31.2514C49.7168 31.766 49.0315 32.6429 48.4586 33.6838C47.8861 34.7242 47.3695 36.0295 47.3695 37.3541V39.9623H44.2215V37.3541Z" stroke="#533EE8" stroke-width="2"/>
<path d="M42.2075 37.9554H50.2644" stroke="#533EE8" stroke-width="2" stroke-linecap="round"/>
</svg>
