<svg width="179" height="44" viewBox="0 0 179 44" fill="none" xmlns="http://www.w3.org/2000/svg">
<path d="M62.336 27H56.792V6.952H62.336C63.7547 6.952 64.8653 7.39067 65.668 8.268C66.4893 9.14533 66.9 10.2187 66.9 11.488V22.464C66.9 23.7333 66.4893 24.8067 65.668 25.684C64.8653 26.5613 63.7547 27 62.336 27ZM63.904 22.436V11.516C63.904 10.9373 63.7267 10.4613 63.372 10.088C63.036 9.71467 62.5133 9.528 61.804 9.528H59.816V24.424H61.804C62.5133 24.424 63.036 24.2373 63.372 23.864C63.7267 23.4907 63.904 23.0147 63.904 22.436ZM73.6104 27H70.5864V6.952H73.6104V27ZM88.5722 7.456L83.7562 27H80.9842L76.1962 7.456V6.952H78.9682L82.3562 21.904L85.8002 6.952H88.5722V7.456ZM101.059 6.952V23.164C101.059 24.564 100.555 25.6093 99.5471 26.3C98.5391 26.972 97.3631 27.308 96.0191 27.308C94.6565 27.308 93.4711 26.972 92.4631 26.3C91.4551 25.6093 90.9511 24.564 90.9511 23.164V6.952H93.9751V23.164C93.9751 23.6867 94.1805 24.0787 94.5911 24.34C95.0018 24.6013 95.4778 24.732 96.0191 24.732C96.5605 24.732 97.0365 24.6013 97.4471 24.34C97.8578 24.0787 98.0631 23.6867 98.0631 23.164V6.952H101.059ZM113.846 27H104.97V6.952H107.994V24.368H113.846V27ZM123.048 23.164V18.6H121.032V15.968H126.072V23.164C126.072 24.564 125.568 25.6093 124.56 26.3C123.552 26.972 122.376 27.308 121.032 27.308C119.67 27.308 118.484 26.972 117.476 26.3C116.468 25.6093 115.964 24.564 115.964 23.164V10.788C115.964 9.36933 116.468 8.324 117.476 7.652C118.484 6.96133 119.67 6.616 121.032 6.616C122.376 6.616 123.552 6.96133 124.56 7.652C125.568 8.324 126.072 9.36933 126.072 10.788V13.952H123.048V10.788C123.048 10.2653 122.843 9.87333 122.432 9.612C122.04 9.35067 121.574 9.22 121.032 9.22C120.491 9.22 120.015 9.35067 119.604 9.612C119.194 9.85467 118.988 10.2467 118.988 10.788V23.164C118.988 23.6867 119.194 24.0787 119.604 24.34C120.015 24.6013 120.491 24.732 121.032 24.732C121.574 24.732 122.04 24.6013 122.432 24.34C122.843 24.0787 123.048 23.6867 123.048 23.164ZM139.34 27H134.3C132.937 27 131.752 26.6547 130.744 25.964C129.736 25.2733 129.232 24.2187 129.232 22.8V20.448C129.232 19.776 129.344 19.1787 129.568 18.656C129.792 18.1147 130.044 17.6947 130.324 17.396C130.623 17.0787 131.033 16.7987 131.556 16.556C132.079 16.2947 132.517 16.1173 132.872 16.024C133.227 15.912 133.703 15.7813 134.3 15.632L136.316 15.128V10.76C136.316 10.2373 136.111 9.84533 135.7 9.584C135.308 9.32267 134.841 9.192 134.3 9.192C133.759 9.192 133.283 9.32267 132.872 9.584C132.461 9.84533 132.256 10.2373 132.256 10.76V13.896H129.232V10.76C129.232 9.34133 129.736 8.296 130.744 7.624C131.752 6.952 132.937 6.616 134.3 6.616C135.644 6.616 136.82 6.952 137.828 7.624C138.836 8.296 139.34 9.34133 139.34 10.76V27ZM136.316 24.368V17.76L134.3 18.264C133.927 18.3387 133.609 18.4413 133.348 18.572C133.087 18.684 132.835 18.908 132.592 19.244C132.368 19.5613 132.256 19.9627 132.256 20.448V22.8C132.256 23.3413 132.461 23.7427 132.872 24.004C133.283 24.2467 133.759 24.368 134.3 24.368H136.316ZM155.545 23.164V20H158.569V23.164C158.569 24.564 158.065 25.6093 157.057 26.3C156.049 26.972 154.873 27.308 153.529 27.308C152.166 27.308 150.981 26.972 149.973 26.3C148.965 25.6093 148.461 24.564 148.461 23.164V10.788C148.461 9.36933 148.965 8.324 149.973 7.652C150.981 6.96133 152.166 6.616 153.529 6.616C154.873 6.616 156.049 6.96133 157.057 7.652C158.065 8.324 158.569 9.36933 158.569 10.788V13.952H155.545V10.788C155.545 10.2653 155.339 9.87333 154.929 9.612C154.537 9.35067 154.07 9.22 153.529 9.22C152.987 9.22 152.511 9.35067 152.101 9.612C151.69 9.85467 151.485 10.2467 151.485 10.788V23.164C151.485 23.6867 151.69 24.0787 152.101 24.34C152.511 24.6013 152.987 24.732 153.529 24.732C154.07 24.732 154.537 24.6013 154.929 24.34C155.339 24.0787 155.545 23.6867 155.545 23.164ZM164.846 27H161.626V23.976H164.846V27ZM171.564 27H168.54V6.952H171.564V27ZM178.462 27H175.242V23.976H178.462V27Z" fill="white"/>
<path d="M32.01 41.63V40.5H33.09V41.63C33.09 42.13 32.91 42.5033 32.55 42.75C32.19 42.99 31.77 43.11 31.29 43.11C30.8033 43.11 30.38 42.99 30.02 42.75C29.66 42.5033 29.48 42.13 29.48 41.63V37.21C29.48 36.7033 29.66 36.33 30.02 36.09C30.38 35.8433 30.8033 35.72 31.29 35.72C31.77 35.72 32.19 35.8433 32.55 36.09C32.91 36.33 33.09 36.7033 33.09 37.21V38.34H32.01V37.21C32.01 37.0233 31.9367 36.8833 31.79 36.79C31.65 36.6967 31.4833 36.65 31.29 36.65C31.0967 36.65 30.9267 36.6967 30.78 36.79C30.6333 36.8767 30.56 37.0167 30.56 37.21V41.63C30.56 41.8167 30.6333 41.9567 30.78 42.05C30.9267 42.1433 31.0967 42.19 31.29 42.19C31.4833 42.19 31.65 42.1433 31.79 42.05C31.9367 41.9567 32.01 41.8167 32.01 41.63ZM37.222 43H36.142V35.84H37.222V43ZM43.9455 40.5V41.63C43.9455 42.13 43.7655 42.5033 43.4055 42.75C43.0455 42.99 42.6255 43.11 42.1455 43.11C41.6588 43.11 41.2355 42.99 40.8755 42.75C40.5155 42.5033 40.3355 42.13 40.3355 41.63V37.21C40.3355 36.7033 40.5155 36.33 40.8755 36.09C41.2355 35.8433 41.6588 35.72 42.1455 35.72C42.6255 35.72 43.0455 35.8433 43.4055 36.09C43.7655 36.33 43.9455 36.7033 43.9455 37.21V39.78H41.4155V41.63C41.4155 41.8167 41.4888 41.9567 41.6355 42.05C41.7821 42.1433 41.9521 42.19 42.1455 42.19C42.3388 42.19 42.5055 42.1433 42.6455 42.05C42.7921 41.9567 42.8655 41.8167 42.8655 41.63V40.5H43.9455ZM41.4155 38.84H42.8655V37.21C42.8655 37.0167 42.7921 36.8767 42.6455 36.79C42.5055 36.6967 42.3388 36.65 42.1455 36.65C41.9521 36.65 41.7821 36.6967 41.6355 36.79C41.4888 36.8833 41.4155 37.0233 41.4155 37.21V38.84ZM43.2555 35.41H42.5855L42.1155 34.88L41.6355 35.41H40.9455V35.23L41.8655 34.39H42.3355L43.2555 35.23V35.41ZM50.6074 43H49.5374V37.47C49.5374 37.2633 49.4741 37.0933 49.3474 36.96C49.2274 36.8267 49.0408 36.76 48.7874 36.76H48.0774V43H46.9974V35.84H48.9774C49.4841 35.84 49.8808 35.9967 50.1674 36.31C50.4608 36.6233 50.6074 37.0067 50.6074 37.46V43ZM56.094 41.63V40.5H57.174V41.63C57.174 42.13 56.994 42.5033 56.634 42.75C56.274 42.99 55.854 43.11 55.374 43.11C54.8873 43.11 54.464 42.99 54.104 42.75C53.744 42.5033 53.564 42.13 53.564 41.63V37.21C53.564 36.7033 53.744 36.33 54.104 36.09C54.464 35.8433 54.8873 35.72 55.374 35.72C55.854 35.72 56.274 35.8433 56.634 36.09C56.994 36.33 57.174 36.7033 57.174 37.21V38.34H56.094V37.21C56.094 37.0233 56.0207 36.8833 55.874 36.79C55.734 36.6967 55.5673 36.65 55.374 36.65C55.1807 36.65 55.0107 36.6967 54.864 36.79C54.7173 36.8767 54.644 37.0167 54.644 37.21V41.63C54.644 41.8167 54.7173 41.9567 54.864 42.05C55.0107 42.1433 55.1807 42.19 55.374 42.19C55.5673 42.19 55.734 42.1433 55.874 42.05C56.0207 41.9567 56.094 41.8167 56.094 41.63ZM61.3059 43H60.2259V35.84H61.3059V43ZM67.9195 43H66.1195C65.6328 43 65.2095 42.8767 64.8495 42.63C64.4895 42.3833 64.3095 42.0067 64.3095 41.5V40.66C64.3095 40.42 64.3495 40.2067 64.4295 40.02C64.5095 39.8267 64.5995 39.6767 64.6995 39.57C64.8061 39.4567 64.9528 39.3567 65.1395 39.27C65.3261 39.1767 65.4828 39.1133 65.6095 39.08C65.7361 39.04 65.9061 38.9933 66.1195 38.94L66.8395 38.76V37.2C66.8395 37.0133 66.7661 36.8733 66.6195 36.78C66.4795 36.6867 66.3128 36.64 66.1195 36.64C65.9261 36.64 65.7561 36.6867 65.6095 36.78C65.4628 36.8733 65.3895 37.0133 65.3895 37.2V38.32H64.3095V37.2C64.3095 36.6933 64.4895 36.32 64.8495 36.08C65.2095 35.84 65.6328 35.72 66.1195 35.72C66.5995 35.72 67.0195 35.84 67.3795 36.08C67.7395 36.32 67.9195 36.6933 67.9195 37.2V43ZM66.8395 42.06V39.7L66.1195 39.88C65.9861 39.9067 65.8728 39.9433 65.7795 39.99C65.6861 40.03 65.5961 40.11 65.5095 40.23C65.4295 40.3433 65.3895 40.4867 65.3895 40.66V41.5C65.3895 41.6933 65.4628 41.8367 65.6095 41.93C65.7561 42.0167 65.9261 42.06 66.1195 42.06H66.8395ZM79.1669 43H78.0769L77.7569 42.56C77.4369 42.9267 77.0202 43.11 76.5069 43.11C75.9535 43.11 75.5069 42.96 75.1669 42.66C74.8335 42.36 74.6669 41.98 74.6669 41.52V40.59C74.6669 40.0967 74.9069 39.66 75.3869 39.28C75.0869 38.94 74.9369 38.5767 74.9369 38.19V37.24C74.9369 36.7667 75.0802 36.3967 75.3669 36.13C75.6535 35.8567 76.0669 35.72 76.6069 35.72C77.1402 35.72 77.5502 35.85 77.8369 36.11C78.1302 36.37 78.2769 36.71 78.2769 37.13V38.01H77.2069V37.13C77.2069 36.99 77.1535 36.8767 77.0469 36.79C76.9402 36.6967 76.7969 36.65 76.6169 36.65C76.2035 36.65 75.9969 36.8467 75.9969 37.24V38.16C75.9969 38.3 76.1135 38.5267 76.3469 38.84L77.2069 40.06V39.06H78.9069V40H78.1869V41.44L79.1669 42.82V43ZM77.1269 41.67L76.0269 40.12C75.8335 40.2333 75.7369 40.39 75.7369 40.59V41.52C75.7369 41.7333 75.8102 41.9 75.9569 42.02C76.1035 42.1333 76.2835 42.19 76.4969 42.19C76.7835 42.19 76.9935 42.0167 77.1269 41.67ZM89.3107 40.5V41.63C89.3107 42.13 89.1307 42.5033 88.7707 42.75C88.4107 42.99 87.9907 43.11 87.5107 43.11C87.024 43.11 86.6007 42.99 86.2407 42.75C85.8807 42.5033 85.7007 42.13 85.7007 41.63V37.21C85.7007 36.7033 85.8807 36.33 86.2407 36.09C86.6007 35.8433 87.024 35.72 87.5107 35.72C87.9907 35.72 88.4107 35.8433 88.7707 36.09C89.1307 36.33 89.3107 36.7033 89.3107 37.21V39.78H86.7807V41.63C86.7807 41.8167 86.854 41.9567 87.0007 42.05C87.1474 42.1433 87.3174 42.19 87.5107 42.19C87.704 42.19 87.8707 42.1433 88.0107 42.05C88.1574 41.9567 88.2307 41.8167 88.2307 41.63V40.5H89.3107ZM86.7807 38.84H88.2307V37.21C88.2307 37.0167 88.1574 36.8767 88.0107 36.79C87.8707 36.6967 87.704 36.65 87.5107 36.65C87.3174 36.65 87.1474 36.6967 87.0007 36.79C86.854 36.8833 86.7807 37.0233 86.7807 37.21V38.84ZM98.3327 43H97.2527V37.47C97.2527 37.2567 97.1927 37.0867 97.0727 36.96C96.9527 36.8267 96.766 36.76 96.5127 36.76H95.8827V43H94.8127V36.76H93.4427V43H92.3627V35.84H96.6927C97.1993 35.84 97.5993 35.9967 97.8927 36.31C98.186 36.6167 98.3327 37 98.3327 37.46V43ZM104.102 38.49V37.61C104.102 37.3833 104.036 37.1867 103.902 37.02C103.769 36.8533 103.572 36.77 103.312 36.77H102.542V39.33H103.312C103.572 39.33 103.769 39.2467 103.902 39.08C104.036 38.9133 104.102 38.7167 104.102 38.49ZM102.542 43H101.462V35.84H103.312C103.892 35.84 104.349 35.9933 104.682 36.3C105.016 36.6067 105.182 37.0433 105.182 37.61V38.49C105.182 39.05 105.016 39.4833 104.682 39.79C104.349 40.0967 103.892 40.25 103.312 40.25H102.542V43ZM111.891 43H110.781L109.891 40.13H109.181V43H108.101V35.84H110.031C110.564 35.84 110.984 35.9833 111.291 36.27C111.598 36.5567 111.751 36.9733 111.751 37.52V38.4C111.751 39.0867 111.471 39.59 110.911 39.91L111.891 42.82V43ZM110.681 38.39V37.51C110.681 37.3167 110.624 37.1467 110.511 37C110.398 36.8467 110.238 36.77 110.031 36.77H109.181V39.19H110.031C110.238 39.19 110.398 39.1067 110.511 38.94C110.624 38.7733 110.681 38.59 110.681 38.39ZM118.346 40.5V41.63C118.346 42.13 118.166 42.5033 117.806 42.75C117.446 42.99 117.026 43.11 116.546 43.11C116.059 43.11 115.636 42.99 115.276 42.75C114.916 42.5033 114.736 42.13 114.736 41.63V37.21C114.736 36.7033 114.916 36.33 115.276 36.09C115.636 35.8433 116.059 35.72 116.546 35.72C117.026 35.72 117.446 35.8433 117.806 36.09C118.166 36.33 118.346 36.7033 118.346 37.21V39.78H115.816V41.63C115.816 41.8167 115.889 41.9567 116.036 42.05C116.183 42.1433 116.353 42.19 116.546 42.19C116.739 42.19 116.906 42.1433 117.046 42.05C117.193 41.9567 117.266 41.8167 117.266 41.63V40.5H118.346ZM115.816 38.84H117.266V37.21C117.266 37.0167 117.193 36.8767 117.046 36.79C116.906 36.6967 116.739 36.65 116.546 36.65C116.353 36.65 116.183 36.6967 116.036 36.79C115.889 36.8833 115.816 37.0233 115.816 37.21V38.84ZM124.848 40.5V41.63C124.848 42.13 124.668 42.5033 124.308 42.75C123.948 42.99 123.528 43.11 123.048 43.11C122.561 43.11 122.138 42.99 121.778 42.75C121.418 42.5033 121.238 42.13 121.238 41.63V37.21C121.238 36.7033 121.418 36.33 121.778 36.09C122.138 35.8433 122.561 35.72 123.048 35.72C123.528 35.72 123.948 35.8433 124.308 36.09C124.668 36.33 124.848 36.7033 124.848 37.21V39.78H122.318V41.63C122.318 41.8167 122.391 41.9567 122.538 42.05C122.684 42.1433 122.854 42.19 123.048 42.19C123.241 42.19 123.408 42.1433 123.548 42.05C123.694 41.9567 123.768 41.8167 123.768 41.63V40.5H124.848ZM122.318 38.84H123.768V37.21C123.768 37.0167 123.694 36.8767 123.548 36.79C123.408 36.6967 123.241 36.65 123.048 36.65C122.854 36.65 122.684 36.6967 122.538 36.79C122.391 36.8833 122.318 37.0233 122.318 37.21V38.84ZM131.51 43H130.44V37.47C130.44 37.2633 130.376 37.0933 130.25 36.96C130.13 36.8267 129.943 36.76 129.69 36.76H128.98V43H127.9V35.84H129.88C130.386 35.84 130.783 35.9967 131.07 36.31C131.363 36.6233 131.51 37.0067 131.51 37.46V43ZM136.606 43H134.626V35.84H136.606C137.113 35.84 137.51 35.9967 137.796 36.31C138.09 36.6233 138.236 37.0067 138.236 37.46V41.38C138.236 41.8333 138.09 42.2167 137.796 42.53C137.51 42.8433 137.113 43 136.606 43ZM137.166 41.37V37.47C137.166 37.2633 137.103 37.0933 136.976 36.96C136.856 36.8267 136.67 36.76 136.416 36.76H135.706V42.08H136.416C136.67 42.08 136.856 42.0133 136.976 41.88C137.103 41.7467 137.166 41.5767 137.166 41.37ZM143.723 41.63V37.21C143.723 37.0233 143.65 36.8833 143.503 36.79C143.363 36.6967 143.196 36.65 143.003 36.65C142.81 36.65 142.64 36.6967 142.493 36.79C142.346 36.8767 142.273 37.0167 142.273 37.21V41.63C142.273 41.8167 142.346 41.9567 142.493 42.05C142.64 42.1433 142.81 42.19 143.003 42.19C143.196 42.19 143.363 42.1433 143.503 42.05C143.65 41.9567 143.723 41.8167 143.723 41.63ZM141.193 41.63V37.21C141.193 36.7033 141.373 36.33 141.733 36.09C142.093 35.8433 142.516 35.72 143.003 35.72C143.483 35.72 143.903 35.8433 144.263 36.09C144.623 36.33 144.803 36.7033 144.803 37.21V41.63C144.803 42.13 144.623 42.5033 144.263 42.75C143.903 42.99 143.483 43.11 143.003 43.11C142.516 43.11 142.093 42.99 141.733 42.75C141.373 42.5033 141.193 42.13 141.193 41.63ZM151.733 43H150.623L149.733 40.13H149.023V43H147.943V35.84H149.873C150.406 35.84 150.826 35.9833 151.133 36.27C151.439 36.5567 151.593 36.9733 151.593 37.52V38.4C151.593 39.0867 151.313 39.59 150.753 39.91L151.733 42.82V43ZM150.523 38.39V37.51C150.523 37.3167 150.466 37.1467 150.353 37C150.239 36.8467 150.079 36.77 149.873 36.77H149.023V39.19H149.873C150.079 39.19 150.239 39.1067 150.353 38.94C150.466 38.7733 150.523 38.59 150.523 38.39ZM155.837 43H154.757V35.84H155.837V43ZM162.361 41.12V41.63C162.361 42.13 162.181 42.5033 161.821 42.75C161.467 42.99 161.047 43.11 160.561 43.11C160.074 43.11 159.651 42.99 159.291 42.75C158.937 42.5033 158.761 42.13 158.761 41.63V40.5H159.831V41.63C159.831 41.8167 159.904 41.9567 160.051 42.05C160.197 42.1433 160.367 42.19 160.561 42.19C160.754 42.19 160.924 42.1433 161.071 42.05C161.224 41.9567 161.301 41.8167 161.301 41.63V41.12C161.301 40.78 161.257 40.54 161.171 40.4C161.084 40.2533 160.881 40.1 160.561 39.94C160.294 39.8267 160.094 39.74 159.961 39.68C159.834 39.6133 159.681 39.5167 159.501 39.39C159.321 39.2633 159.191 39.1333 159.111 39C159.031 38.86 158.957 38.6833 158.891 38.47C158.831 38.25 158.801 38 158.801 37.72V37.21C158.801 36.7033 158.977 36.33 159.331 36.09C159.684 35.8433 160.094 35.72 160.561 35.72C161.034 35.72 161.444 35.8433 161.791 36.09C162.144 36.33 162.321 36.7033 162.321 37.21V38.34H161.251V37.21C161.251 37.0233 161.181 36.8833 161.041 36.79C160.907 36.6967 160.747 36.65 160.561 36.65C160.381 36.65 160.221 36.6967 160.081 36.79C159.947 36.8767 159.881 37.0167 159.881 37.21V37.72C159.881 38.0533 159.924 38.3 160.011 38.46C160.097 38.6133 160.281 38.7567 160.561 38.89C160.894 39.03 161.147 39.15 161.321 39.25C161.501 39.3433 161.681 39.4767 161.861 39.65C162.047 39.8167 162.177 40.02 162.251 40.26C162.324 40.4933 162.361 40.78 162.361 41.12ZM171.368 43H170.288V37.47C170.288 37.2567 170.228 37.0867 170.108 36.96C169.988 36.8267 169.801 36.76 169.548 36.76H168.918V43H167.848V36.76H166.478V43H165.398V35.84H169.728C170.234 35.84 170.634 35.9967 170.928 36.31C171.221 36.6167 171.368 37 171.368 37.46V43ZM176.867 41.63V37.21C176.867 37.0233 176.794 36.8833 176.647 36.79C176.507 36.6967 176.341 36.65 176.147 36.65C175.954 36.65 175.784 36.6967 175.637 36.79C175.491 36.8767 175.417 37.0167 175.417 37.21V41.63C175.417 41.8167 175.491 41.9567 175.637 42.05C175.784 42.1433 175.954 42.19 176.147 42.19C176.341 42.19 176.507 42.1433 176.647 42.05C176.794 41.9567 176.867 41.8167 176.867 41.63ZM174.337 41.63V37.21C174.337 36.7033 174.517 36.33 174.877 36.09C175.237 35.8433 175.661 35.72 176.147 35.72C176.627 35.72 177.047 35.8433 177.407 36.09C177.767 36.33 177.947 36.7033 177.947 37.21V41.63C177.947 42.13 177.767 42.5033 177.407 42.75C177.047 42.99 176.627 43.11 176.147 43.11C175.661 43.11 175.237 42.99 174.877 42.75C174.517 42.5033 174.337 42.13 174.337 41.63Z" fill="white"/>
<mask id="mask0_160_5218" style="mask-type:luminance" maskUnits="userSpaceOnUse" x="0" y="0" width="47" height="42">
<path d="M46.7306 0H0V41.8704H46.7306V0Z" fill="white"/>
</mask>
<g mask="url(#mask0_160_5218)">
<path d="M38.7997 11.8223C38.7997 11.8223 38.7832 11.7566 38.775 11.732C38.7668 11.6909 38.7586 11.6663 38.7586 11.6252C38.7504 11.5842 38.7504 11.5595 38.7422 11.5185C38.734 11.4774 38.734 11.4364 38.734 11.3872C38.734 11.3625 38.7258 11.3379 38.7258 11.3132V11.2558C38.7258 11.2065 38.7258 11.1655 38.734 11.1162C38.734 11.0916 38.7422 11.0588 38.7422 11.0259C38.7504 10.9849 38.7586 10.952 38.7668 10.911C38.775 10.8863 38.775 10.8535 38.7833 10.8371C38.7997 10.7796 38.8243 10.7222 38.8489 10.6647C38.8572 10.6401 38.8654 10.6154 38.89 10.599C38.9064 10.5579 38.931 10.5251 38.9557 10.4841C38.9639 10.4676 38.9803 10.443 38.9967 10.4266C39.0378 10.3691 39.0706 10.3199 39.1117 10.2788C39.1199 10.2706 39.1281 10.2624 39.1363 10.2542C39.1527 10.2296 39.1856 10.1967 39.2102 10.1803C39.2184 10.1721 39.2266 10.1639 39.2512 10.1557C39.2676 10.1393 39.3005 10.1146 39.3169 10.0982C39.3251 10.09 39.3415 10.0818 39.358 10.0736C39.6617 9.78623 39.8341 9.36753 39.8341 8.9242C39.8341 8.48086 39.6453 8.07035 39.358 7.77479C39.3087 7.72553 39.2676 7.6927 39.2183 7.65165C38.9146 7.3643 38.7422 6.94561 38.7422 6.50227C38.7422 6.25598 38.7997 6.0343 38.89 5.82906C39.1445 5.279 39.7027 4.88493 40.3513 4.88493C40.9999 4.88493 41.5582 5.27079 41.8127 5.82906C41.903 6.0343 41.9605 6.26419 41.9605 6.50227C41.9605 6.95382 41.7716 7.35609 41.4843 7.65165C41.435 7.6927 41.394 7.73374 41.3447 7.77479C41.041 8.06214 40.8685 8.48085 40.8685 8.91598C40.8685 9.3511 41.0574 9.76979 41.3447 10.0571H41.3529C41.3529 10.0571 41.4268 10.131 41.4679 10.1639C41.4761 10.1721 41.4843 10.1803 41.4925 10.1885H41.5007C41.5007 10.1885 41.5007 10.1967 41.5089 10.1967C41.5089 10.2049 41.5172 10.2049 41.5172 10.2131C41.5582 10.2542 41.591 10.287 41.6239 10.3363C41.9112 10.6401 42.3299 10.8125 42.7732 10.8125C43.2166 10.8125 43.6271 10.6236 43.9226 10.3281C43.9719 10.2788 44.0047 10.2378 44.0458 10.1885C44.3331 9.88473 44.7518 9.70412 45.1952 9.70412C45.4415 9.70412 45.6631 9.76158 45.8684 9.85189C46.402 10.1146 46.7879 10.6729 46.7879 11.3215C46.7879 11.97 46.402 12.5283 45.8437 12.7828C45.6385 12.8731 45.4086 12.9306 45.1705 12.9306C44.719 12.9306 44.3167 12.7418 44.0212 12.4544C43.9801 12.4052 43.939 12.3477 43.898 12.3149C43.6106 12.0111 43.192 11.8387 42.7569 11.8387C42.3217 11.8387 41.903 12.0275 41.6157 12.3149C41.6075 12.3313 41.591 12.3395 41.5746 12.3641C41.5582 12.3806 41.5336 12.4052 41.5254 12.4216C41.5172 12.438 41.5007 12.4462 41.4843 12.4626C41.4597 12.4873 41.4268 12.5201 41.4022 12.5447L41.3858 12.5612C41.3365 12.6104 41.279 12.6433 41.2298 12.6843C41.2216 12.6925 41.2052 12.7007 41.1887 12.7089C41.1395 12.7336 41.0984 12.7664 41.0492 12.7828C41.0328 12.791 41.0246 12.7993 40.9999 12.7993C40.9425 12.8239 40.8767 12.8485 40.8111 12.8649C40.7946 12.8649 40.7864 12.8731 40.7618 12.8731C40.7126 12.8814 40.6551 12.8978 40.6058 12.9142C40.5894 12.9142 40.5566 12.9224 40.5402 12.9224C40.4745 12.9306 40.417 12.9306 40.3513 12.9306H40.3021C40.2446 12.9306 40.1789 12.9224 40.1215 12.9224C40.0968 12.9224 40.0558 12.9142 40.0312 12.906C39.9901 12.8978 39.9655 12.8978 39.9244 12.8896C39.8834 12.8813 39.8505 12.8731 39.8095 12.8649C39.7849 12.8567 39.7602 12.8485 39.7438 12.8403C39.6289 12.791 39.5303 12.75 39.4318 12.6843C39.4236 12.6843 39.4236 12.6761 39.4236 12.6761C39.3661 12.635 39.3087 12.6022 39.2677 12.5529C39.2512 12.5365 39.2266 12.5119 39.2183 12.5037L39.1117 12.397C39.1117 12.397 39.0624 12.3313 39.0378 12.3067C39.0213 12.282 38.9967 12.2574 38.9803 12.2328C38.9557 12.1917 38.931 12.1507 38.9064 12.1014C38.8982 12.085 38.89 12.0604 38.8653 12.0439C38.8653 12.0439 38.8489 11.9865 38.8407 11.9618C38.8243 11.9126 38.7997 11.8797 38.7915 11.8387L38.7997 11.8223ZM19.8349 7.62702C19.5475 7.33968 19.3587 6.93741 19.3587 6.48586C19.3587 6.23136 19.4161 6.00148 19.5147 5.79624C19.7774 5.25438 20.3274 4.87671 20.9678 4.87671C21.6082 4.87671 22.1583 5.25438 22.421 5.79624C22.5277 6.00969 22.577 6.24778 22.577 6.48586C22.577 6.93741 22.3881 7.33968 22.1008 7.63524C22.0515 7.67629 22.0105 7.70912 21.9612 7.75838C21.6575 8.04573 21.485 8.46443 21.485 8.90776C21.485 9.35109 21.6739 9.76158 21.9694 10.0571H21.9776C21.9776 10.0571 22.0515 10.131 22.0844 10.1639C22.0844 10.1639 22.0898 10.1694 22.1008 10.1803C22.1008 10.1803 22.109 10.1967 22.1172 10.1967C22.1254 10.2049 22.1336 10.2213 22.1418 10.2378C22.1665 10.2624 22.1993 10.2952 22.224 10.3281H22.2322C22.5195 10.6401 22.9382 10.8125 23.3815 10.8125C23.8249 10.8125 24.2354 10.6236 24.5309 10.3281C24.5473 10.3117 24.5556 10.287 24.5802 10.2706C24.5884 10.2624 24.5966 10.2542 24.6048 10.2296C24.613 10.2131 24.6294 10.2049 24.654 10.1803C24.6787 10.1557 24.7197 10.1146 24.7608 10.09C24.8182 10.0407 24.8675 10.0079 24.9168 9.96684C24.9332 9.95863 24.9414 9.95042 24.966 9.94221C25.0071 9.91758 25.0481 9.89294 25.0892 9.87652C25.1056 9.86831 25.1303 9.8601 25.1549 9.85189C25.2124 9.82726 25.2698 9.80264 25.3273 9.78622C25.3519 9.77801 25.3848 9.76981 25.4094 9.76981C25.4504 9.7616 25.4832 9.75339 25.5243 9.74518C25.5489 9.73697 25.59 9.73696 25.631 9.72875C25.6721 9.72875 25.7049 9.72055 25.746 9.72055C25.7706 9.72055 25.7953 9.71234 25.8199 9.71234C25.8445 9.71234 25.8855 9.72055 25.9102 9.72055C25.9512 9.72055 25.9759 9.72054 26.0169 9.72875C26.058 9.72875 26.0908 9.73697 26.1319 9.74518C26.1565 9.75339 26.1893 9.75338 26.2139 9.76159C26.255 9.7698 26.2878 9.77801 26.3289 9.78622C26.3535 9.79443 26.3781 9.80264 26.4028 9.81085C26.649 9.90116 26.8625 10.0572 27.0267 10.2542C27.1499 10.3855 27.2402 10.5415 27.3059 10.7139C27.3141 10.7386 27.3305 10.7796 27.3469 10.8207C27.3551 10.8453 27.3633 10.8863 27.3715 10.911C27.3797 10.952 27.388 10.9849 27.3962 11.0341C27.4044 11.0587 27.4044 11.0916 27.4126 11.1162C27.4208 11.1819 27.429 11.2558 27.429 11.3297C27.429 11.4036 27.4208 11.4693 27.4126 11.5431C27.4126 11.5596 27.4044 11.5842 27.4044 11.6006C27.3962 11.6581 27.388 11.7156 27.3633 11.773C27.3633 11.7812 27.3551 11.7976 27.3551 11.8141C27.3387 11.8797 27.3058 11.9372 27.2812 12.0029C27.273 12.0193 27.2648 12.0439 27.2566 12.0603C27.2402 12.1096 27.2073 12.1507 27.1827 12.1917C27.1745 12.2081 27.1663 12.2163 27.1581 12.241C27.117 12.2984 27.0842 12.3477 27.0349 12.397C27.0267 12.4052 27.0185 12.4134 27.0103 12.4216C26.9939 12.438 26.9693 12.4709 26.9446 12.4873C26.9282 12.4955 26.9036 12.5119 26.8954 12.5365C26.879 12.553 26.8543 12.5612 26.8379 12.5858C26.8297 12.594 26.8133 12.6022 26.7969 12.6104C26.4931 12.8978 26.3207 13.3165 26.3207 13.7598C26.3207 14.2031 26.5095 14.6136 26.7969 14.9092C26.8461 14.9584 26.8872 14.9913 26.9364 15.0323C27.2402 15.3197 27.4208 15.7384 27.4208 16.1817C27.4208 16.428 27.3633 16.6497 27.273 16.8549C27.0185 17.405 26.4602 17.7908 25.8117 17.7908C25.1631 17.7908 24.6048 17.405 24.3503 16.8549C24.26 16.6497 24.2025 16.4198 24.2025 16.1817C24.2025 15.7302 24.3914 15.3279 24.6787 15.0405C24.728 14.9995 24.769 14.9584 24.8183 14.9174C25.122 14.63 25.2944 14.2113 25.2944 13.7762C25.2944 13.3411 25.1056 12.9224 24.8183 12.635C24.7608 12.5858 24.7033 12.5529 24.6623 12.4955C24.6541 12.4873 24.6459 12.4709 24.6212 12.4544C24.5966 12.4298 24.5638 12.3888 24.5391 12.3641H24.5309C24.2436 12.0604 23.8249 11.8797 23.3897 11.8797C22.9546 11.8797 22.5359 12.0686 22.2486 12.3559C22.2321 12.3723 22.2239 12.3805 22.2075 12.4052C22.1993 12.4134 22.1911 12.4298 22.1829 12.4462C22.1664 12.4626 22.1419 12.4873 22.1254 12.5119C22.1008 12.5365 22.0679 12.5612 22.0433 12.5858C22.0433 12.5858 22.0351 12.5858 22.0351 12.594C21.9776 12.6433 21.9202 12.6843 21.8545 12.7253C21.8463 12.7253 21.8463 12.7336 21.8381 12.7336C21.7806 12.7746 21.7232 12.7993 21.6657 12.8239C21.6575 12.8321 21.641 12.8321 21.6246 12.8403C21.5589 12.8649 21.4932 12.8978 21.4276 12.9142C21.4194 12.9142 21.4112 12.9142 21.4112 12.9224C21.3537 12.9388 21.288 12.947 21.2305 12.9634C21.2141 12.9634 21.1895 12.9717 21.1731 12.9717C21.1074 12.9799 21.0335 12.9881 20.9596 12.9881C20.8857 12.9881 20.82 12.9799 20.7461 12.9717C20.7215 12.9717 20.6887 12.9634 20.6641 12.9634C20.623 12.9552 20.5819 12.947 20.5409 12.9388C20.4998 12.9306 20.4753 12.9224 20.4342 12.9142L20.3521 12.8896C20.1058 12.7992 19.8923 12.6351 19.7281 12.438C19.6132 12.3067 19.5229 12.1507 19.4572 11.9865C19.4408 11.9454 19.4326 11.9208 19.4161 11.8797C19.4079 11.8551 19.3997 11.8223 19.3915 11.7977C19.3833 11.7566 19.3751 11.7155 19.3669 11.6663C19.3669 11.6417 19.3587 11.617 19.3587 11.5924C19.3505 11.5267 19.3423 11.4528 19.3423 11.3872C19.3423 11.3133 19.3505 11.2476 19.3587 11.1737C19.3587 11.1573 19.3669 11.1326 19.3669 11.1162C19.3751 11.0587 19.3833 10.9931 19.408 10.9356C19.408 10.9274 19.4079 10.9192 19.4161 10.911C19.4326 10.8453 19.4654 10.7796 19.4901 10.7139C19.4901 10.7057 19.4983 10.6975 19.4983 10.6893C19.5229 10.6318 19.5557 10.5744 19.5886 10.5169C19.5886 10.5087 19.5968 10.5087 19.5968 10.5005C19.6625 10.4102 19.7364 10.3117 19.8102 10.2296C19.8267 10.2214 19.8349 10.2049 19.8595 10.1803C19.8759 10.1721 19.8841 10.1557 19.9088 10.1392C19.9252 10.1228 19.9498 10.1146 19.958 10.0982C20.2618 9.81086 20.4342 9.39216 20.4342 8.94882C20.4342 8.50549 20.2454 8.09499 19.958 7.80764C19.9416 7.71733 19.8841 7.66807 19.8349 7.62702ZM19.3669 30.4751C19.3669 30.4751 19.3751 30.4258 19.3751 30.4012C19.3833 30.3519 19.3915 30.3109 19.3998 30.2699C19.408 30.2452 19.4161 30.2124 19.4244 30.1878C19.4408 30.1385 19.449 30.1057 19.4736 30.0564C19.4818 30.04 19.4901 30.0153 19.4983 29.9989C19.5065 29.9743 19.5229 29.9497 19.5393 29.9333C19.5557 29.8922 19.5886 29.8512 19.605 29.8101C19.7938 29.5228 20.0812 29.2929 20.4096 29.1862C20.4178 29.1862 20.426 29.1779 20.4506 29.1779C20.4916 29.1697 20.5245 29.1615 20.5655 29.1533C20.5902 29.1451 20.6312 29.1369 20.6558 29.1369C20.6805 29.1287 20.7133 29.1287 20.7461 29.1205C20.8118 29.1123 20.8775 29.1041 20.9514 29.1041C21.0253 29.1041 21.091 29.1123 21.1566 29.1205C21.173 29.1205 21.1977 29.1287 21.2141 29.1287C21.2716 29.1369 21.3208 29.1451 21.3701 29.1697C21.3865 29.1697 21.3947 29.1779 21.4194 29.1779C21.485 29.1944 21.5425 29.2272 21.6 29.2436C21.6164 29.2518 21.6411 29.2601 21.6575 29.2683C21.7067 29.2847 21.7395 29.3175 21.7888 29.3421C21.8052 29.3504 21.8134 29.3586 21.8381 29.3668C21.8955 29.4078 21.953 29.4407 21.9941 29.4899C21.9941 29.4899 21.9995 29.4954 22.0105 29.5063C22.0105 29.5063 22.0679 29.5556 22.0926 29.5802C22.1008 29.5966 22.1172 29.6049 22.1336 29.6295C22.15 29.6459 22.1582 29.6705 22.1829 29.6788C22.1993 29.6952 22.2075 29.7198 22.2322 29.728C22.5195 30.0318 22.9218 30.2042 23.3733 30.2042C23.8248 30.2042 24.2271 30.0154 24.5145 29.728C24.5637 29.6788 24.5966 29.6377 24.6377 29.5884C24.925 29.3011 25.3272 29.1123 25.7788 29.1123C26.0333 29.1123 26.2632 29.1697 26.4684 29.2683C27.0103 29.531 27.3879 30.081 27.3879 30.7214C27.3879 31.3618 27.0103 31.9118 26.4684 32.1745C26.2632 32.2813 26.0169 32.3305 25.7788 32.3305C25.3272 32.3305 24.925 32.1417 24.6294 31.8544C24.5884 31.8051 24.5555 31.764 24.5063 31.7148C24.2189 31.411 23.8003 31.2386 23.3569 31.2386C22.9136 31.2386 22.4949 31.4275 22.2075 31.723H22.1993C22.1747 31.7723 22.1419 31.7969 22.1172 31.8379C22.109 31.8461 22.1008 31.8544 22.0926 31.8626H22.0844L22.0762 31.879C22.068 31.8872 22.0597 31.8872 22.0597 31.8954C22.0187 31.9365 21.9858 31.9611 21.9366 32.0021C21.6328 32.2895 21.4604 32.7082 21.4604 33.1515C21.4604 33.5948 21.6492 34.0053 21.9448 34.3009C21.9941 34.3502 22.0351 34.383 22.0844 34.4241C22.3881 34.7114 22.5605 35.1301 22.5605 35.5734C22.5605 35.8197 22.5031 36.0414 22.4128 36.2467C22.1583 36.7967 21.6 37.1908 20.9514 37.1908C20.3028 37.1908 19.7446 36.8049 19.4901 36.2467C19.3997 36.0414 19.3423 35.8115 19.3423 35.5734C19.3423 35.1219 19.5311 34.7196 19.8185 34.4323C19.8677 34.3912 19.9088 34.3502 19.958 34.3091C20.2618 34.0218 20.4342 33.6031 20.4342 33.1597C20.4342 32.7164 20.2454 32.3059 19.958 32.0185C19.9498 32.0103 19.9334 32.0021 19.917 31.9939C19.9006 31.9775 19.8759 31.9693 19.8595 31.9447C19.8431 31.9282 19.8185 31.9036 19.802 31.8954C19.7774 31.8708 19.7528 31.8379 19.7281 31.8133H19.7199C19.6706 31.7476 19.6296 31.6902 19.5886 31.6327C19.5804 31.6245 19.5803 31.6163 19.5721 31.6163C19.5475 31.567 19.5147 31.5095 19.4901 31.4603C19.4818 31.4439 19.4736 31.4357 19.4736 31.411C19.449 31.3453 19.4162 31.2879 19.3998 31.2222C19.3998 31.214 19.3915 31.2058 19.3915 31.1812C19.3751 31.1237 19.3669 31.0662 19.3505 31.0088C19.3505 30.9923 19.3423 30.9677 19.3423 30.9513C19.3341 30.8856 19.3258 30.8117 19.3258 30.746C19.3751 30.6147 19.3751 30.5408 19.3833 30.4751H19.3669ZM4.83545 21.0091C4.83545 21.6495 5.2131 22.1996 5.75495 22.4623C5.9602 22.569 6.20647 22.6183 6.44455 22.6183C6.8961 22.6183 7.29839 22.4294 7.58574 22.1421C7.62679 22.0928 7.66786 22.0353 7.7089 21.9943C7.99625 21.6905 8.41492 21.5181 8.85004 21.5181C9.28516 21.5181 9.70389 21.707 9.99944 21.9943C10.0077 22.0025 10.0158 22.0107 10.024 22.0354C10.0323 22.0436 10.0323 22.0518 10.0405 22.06C10.0487 22.0682 10.0569 22.0764 10.0651 22.0846C10.0816 22.101 10.1062 22.1257 10.1144 22.1421C10.139 22.1667 10.1718 22.1914 10.1965 22.216H10.2047C10.2622 22.2735 10.3196 22.3227 10.3853 22.3555C10.3853 22.3555 10.3935 22.3555 10.3935 22.3638C10.451 22.4048 10.5085 22.4294 10.5659 22.4541C10.5741 22.4623 10.5823 22.4623 10.5905 22.4705C10.6562 22.4951 10.7219 22.528 10.7876 22.5444C10.7876 22.5444 10.793 22.5471 10.804 22.5526C10.804 22.5526 10.8615 22.569 10.8861 22.569H10.9025C10.9025 22.569 10.96 22.5772 10.9929 22.5854C11.0093 22.5854 11.0339 22.5936 11.0503 22.5936H11.0914C11.1488 22.6018 11.2145 22.6018 11.272 22.6018C11.3294 22.6018 11.3951 22.6018 11.4526 22.5936H11.4936C11.4936 22.5936 11.5347 22.5854 11.5429 22.5854C11.6086 22.5772 11.6742 22.5608 11.7317 22.5362H11.7481C11.8138 22.5197 11.8795 22.4869 11.9452 22.4623C11.9534 22.4541 11.9616 22.4541 11.9698 22.4459C12.0273 22.4212 12.0929 22.3884 12.1422 22.3555C12.1422 22.3555 12.1504 22.3555 12.1504 22.3473C12.2161 22.3063 12.2735 22.2652 12.331 22.216C12.3556 22.1914 12.3885 22.1667 12.4131 22.1421C12.4214 22.1257 12.4378 22.101 12.4624 22.0928C12.4706 22.0846 12.4788 22.0764 12.487 22.0682C12.4952 22.06 12.4952 22.0518 12.5034 22.0436C12.5117 22.0353 12.5199 22.0189 12.5445 22.0025C12.8318 21.6988 13.2505 21.5263 13.6857 21.5263C14.1208 21.5263 14.5395 21.7152 14.8351 22.0025C14.8843 22.0518 14.9171 22.0928 14.9582 22.1421C15.2455 22.4458 15.6642 22.6183 16.0994 22.6183C16.3457 22.6183 16.5673 22.5608 16.7726 22.4705C17.3226 22.216 17.7167 21.6577 17.7167 21.0091C17.7167 20.3605 17.3309 19.8023 16.7726 19.5396C16.5673 19.4492 16.3375 19.3918 16.0994 19.3918C15.6478 19.3918 15.2455 19.5806 14.95 19.8679C14.9089 19.9172 14.8761 19.9583 14.8269 20.0075C14.5395 20.3113 14.1208 20.4919 13.6774 20.4919C13.2341 20.4919 12.8237 20.3031 12.5281 20.0157C12.5281 20.0157 12.5226 20.0103 12.5117 19.9993C12.5117 19.9993 12.4953 19.9747 12.4706 19.9583C12.4624 19.9501 12.4542 19.9418 12.446 19.9336C12.4295 19.9172 12.4213 19.909 12.3967 19.8844C12.3475 19.8351 12.3064 19.7941 12.2489 19.753C12.2489 19.753 12.2407 19.753 12.2407 19.7448C11.937 19.4575 11.7564 19.0388 11.7564 18.5954C11.7564 18.1521 11.9452 17.7416 12.2325 17.446C12.2818 17.3968 12.3228 17.3639 12.3721 17.3229C12.6759 17.0355 12.8482 16.6168 12.8482 16.1735C12.8482 15.919 12.7908 15.6891 12.6923 15.4839C12.4295 14.942 11.8795 14.5644 11.2391 14.5644C10.5988 14.5644 10.0487 14.942 9.78598 15.4839C9.67925 15.6891 9.62999 15.9354 9.62999 16.1735C9.62999 16.625 9.81883 17.0273 10.1062 17.3147C10.1554 17.3557 10.2129 17.3968 10.2539 17.4378C10.5413 17.7252 10.7301 18.1439 10.7301 18.5872C10.7301 19.0305 10.5413 19.441 10.2539 19.7284H10.2457C10.2457 19.7284 10.1965 19.7776 10.18 19.7941L10.139 19.8351C10.139 19.8351 10.1226 19.8515 10.1144 19.8515H10.1062L10.098 19.8679C10.0897 19.8762 10.0815 19.8844 10.0733 19.8926C10.0487 19.9172 10.0159 19.9583 9.99122 19.9829H9.98301C9.69566 20.2949 9.27699 20.4755 8.83365 20.4755C8.39032 20.4755 7.97981 20.2867 7.68425 19.9993C7.63499 19.95 7.60213 19.909 7.56108 19.8597C7.27374 19.556 6.85506 19.3836 6.41173 19.3836C6.15722 19.3836 5.92733 19.441 5.72208 19.5396C5.22949 19.7941 4.85183 20.3441 4.85183 20.9927L4.83545 21.0091Z" fill="#F9A51A"/>
<path d="M34.7851 14.7039C34.9903 14.5971 35.2366 14.5479 35.4747 14.5479C35.9262 14.5479 36.3367 14.7367 36.6241 15.0241C36.6651 15.0733 36.698 15.1144 36.7473 15.1636C37.0346 15.4674 37.4533 15.6398 37.8966 15.6398C38.3399 15.6398 38.7505 15.451 39.046 15.1554C39.0624 15.139 39.0706 15.1144 39.0953 15.098C39.1035 15.0897 39.1117 15.0733 39.1199 15.0569C39.1281 15.0405 39.1445 15.0323 39.161 15.0076C39.1856 14.983 39.2266 14.942 39.2677 14.9173C39.3252 14.8681 39.3826 14.8352 39.4401 14.7942C39.4483 14.786 39.4647 14.7778 39.4811 14.7778C39.5304 14.7531 39.5715 14.7203 39.6207 14.7039C39.6371 14.6957 39.6453 14.6875 39.67 14.6792C39.7274 14.6546 39.7931 14.63 39.8506 14.6136C39.867 14.6054 39.8916 14.6054 39.908 14.5971C39.9573 14.5889 39.9983 14.5807 40.0476 14.5725C40.0722 14.5725 40.0969 14.5643 40.1215 14.5643C40.179 14.5561 40.2365 14.5561 40.2939 14.5561H40.3842C40.4335 14.5561 40.4909 14.5561 40.532 14.5643C40.573 14.5643 40.5977 14.5725 40.6223 14.5807C40.6633 14.5889 40.688 14.5889 40.7126 14.5971C40.7536 14.6054 40.7865 14.6136 40.8193 14.6218C40.8439 14.63 40.8686 14.6382 40.8932 14.6464C41.1395 14.7367 41.353 14.8927 41.5336 15.0897C41.6485 15.2211 41.7388 15.3689 41.8127 15.5413C41.8292 15.5823 41.8374 15.6152 41.862 15.6562C41.8702 15.6809 41.8784 15.7137 41.8866 15.7383C41.8948 15.7876 41.903 15.8204 41.9112 15.8697C41.9112 15.8943 41.9195 15.9189 41.9195 15.9436C41.9277 16.0093 41.9359 16.0832 41.9359 16.157C41.9359 16.2309 41.9277 16.2966 41.9195 16.3705C41.9195 16.3869 41.9112 16.4115 41.9112 16.428C41.903 16.4854 41.8948 16.5511 41.8702 16.6086C41.8702 16.6168 41.862 16.625 41.862 16.6332C41.8456 16.6989 41.8127 16.7646 41.7881 16.822C41.7799 16.8385 41.7799 16.8467 41.7717 16.8631C41.7471 16.9205 41.7142 16.9698 41.6896 17.0191C41.6896 17.0273 41.6813 17.0355 41.6813 17.0355C41.6403 17.0929 41.5993 17.1586 41.55 17.2079C41.5254 17.2325 41.5007 17.2654 41.4761 17.29C41.4597 17.3064 41.4269 17.331 41.4105 17.3475C41.4022 17.3557 41.394 17.3639 41.3858 17.3721C41.3694 17.3803 41.3612 17.3967 41.3365 17.4132C41.0328 17.7005 40.8604 18.1028 40.8604 18.5625C40.8604 19.0223 41.0492 19.4163 41.3448 19.7119H41.353C41.353 19.7119 41.4186 19.7776 41.4433 19.8022C41.4515 19.8104 41.4597 19.8186 41.4679 19.8269H41.4761L41.4843 19.8433C41.4925 19.8515 41.4925 19.8597 41.5008 19.8597C41.5418 19.9007 41.5664 19.9336 41.591 19.9746C41.8784 20.2784 42.2971 20.4508 42.7405 20.4508C43.1838 20.4508 43.5942 20.262 43.8898 19.9664C43.8898 19.9664 43.898 19.9582 43.898 19.95C43.9227 19.9089 43.9555 19.8843 43.9802 19.8433C43.9884 19.8351 43.9883 19.8269 43.9965 19.8269H44.0048L44.013 19.8104C44.0212 19.8022 44.0294 19.794 44.0376 19.7858C44.0623 19.7612 44.1033 19.7283 44.1443 19.7037H44.1525C44.4563 19.3999 44.6287 18.9976 44.6287 18.5543C44.6287 18.111 44.4399 17.7005 44.1525 17.4132C44.1033 17.3639 44.0622 17.3311 44.0048 17.29C43.7174 17.0027 43.5286 16.5839 43.5286 16.1488C43.5286 15.8943 43.586 15.6644 43.6846 15.4592C43.9391 14.9256 44.4891 14.5479 45.1377 14.5479C45.7863 14.5479 46.3282 14.9256 46.5909 15.4674C46.6976 15.6727 46.7469 15.9107 46.7469 16.157C46.7469 16.6086 46.558 17.0109 46.2707 17.3064C46.2214 17.3475 46.1804 17.3803 46.1311 17.4296C45.8274 17.7169 45.6549 18.1192 45.6549 18.5789C45.6549 19.0387 45.8438 19.4328 46.1311 19.7283C46.1393 19.7365 46.1558 19.7448 46.1722 19.753C46.1886 19.7612 46.2132 19.7776 46.2214 19.8022C46.2379 19.8186 46.2625 19.8269 46.2789 19.8515C46.3035 19.8761 46.3281 19.9089 46.3528 19.9336H46.361C46.4102 19.9992 46.4513 20.0567 46.4924 20.1142C46.4924 20.1224 46.5006 20.1224 46.5006 20.1306C46.5416 20.1881 46.5663 20.2455 46.5909 20.303C46.5991 20.3112 46.5991 20.3194 46.6073 20.3441C46.6319 20.4097 46.6648 20.4754 46.6812 20.5411C46.6812 20.5493 46.6812 20.5575 46.6894 20.5575C46.7058 20.615 46.714 20.6807 46.7304 20.7381C46.7304 20.7546 46.7387 20.7792 46.7387 20.7956C46.7469 20.8613 46.7551 20.9352 46.7551 21.0091C46.7551 21.083 46.7469 21.1486 46.7387 21.2225C46.7387 21.2389 46.7304 21.2718 46.7304 21.2882C46.7222 21.3375 46.714 21.3785 46.7058 21.4278C46.6976 21.4524 46.6976 21.477 46.6894 21.5017C46.673 21.5673 46.6483 21.6248 46.6237 21.6823C46.5991 21.7397 46.5663 21.789 46.5416 21.8383C46.5334 21.8547 46.5252 21.8629 46.517 21.8875C46.4923 21.9286 46.4595 21.9614 46.4349 22.0025C46.4185 22.0189 46.4103 22.0517 46.3856 22.0681C46.3692 22.0928 46.3364 22.1174 46.3199 22.142C46.2953 22.1666 46.2625 22.2077 46.2296 22.2323C46.2214 22.2406 46.205 22.2488 46.1886 22.257C46.0737 22.3473 45.9423 22.4376 45.8027 22.4951C45.7535 22.5115 45.7206 22.5361 45.6714 22.5443C45.6468 22.5525 45.6139 22.5607 45.5893 22.5689C45.5482 22.5772 45.5072 22.5854 45.4661 22.5936C45.4415 22.5936 45.4169 22.6018 45.3922 22.6018C45.3265 22.61 45.2527 22.6182 45.187 22.6182C45.1131 22.6182 45.0474 22.61 44.9735 22.6018C44.9571 22.6018 44.9325 22.5936 44.916 22.5936C44.8504 22.5854 44.7847 22.569 44.7272 22.5443H44.7108C44.6451 22.5279 44.5794 22.4951 44.5138 22.4704C44.5056 22.4704 44.4974 22.4622 44.4892 22.4622C44.4235 22.4376 44.366 22.3965 44.3085 22.3555C44.2182 22.2898 44.1197 22.2241 44.0458 22.142C44.0294 22.1256 44.0048 22.0928 43.9884 22.0764C43.9802 22.0681 43.9719 22.0517 43.9637 22.0353C43.9555 22.0189 43.9391 22.0107 43.9227 21.986C43.6353 21.6823 43.2166 21.5099 42.7815 21.5099C42.3464 21.5099 41.9277 21.6987 41.6403 21.986C41.6321 21.9942 41.6157 22.0107 41.5993 22.0353C41.5911 22.0435 41.5829 22.0599 41.5582 22.0764C41.5418 22.0928 41.5172 22.1174 41.5008 22.142C41.4187 22.2241 41.3283 22.2898 41.238 22.3555C41.238 22.3555 41.2298 22.3555 41.2298 22.3637C41.1723 22.4048 41.1149 22.4294 41.0574 22.454C41.0492 22.4622 41.041 22.4622 41.0163 22.4704C40.9507 22.4951 40.885 22.5279 40.8193 22.5443C40.8111 22.5443 40.8029 22.5443 40.8029 22.5525C40.7455 22.5689 40.6798 22.5772 40.6223 22.5936C40.6059 22.5936 40.5812 22.6018 40.5648 22.6018C40.4991 22.61 40.4252 22.6182 40.3514 22.6182C40.2775 22.6182 40.2118 22.61 40.1379 22.6018C40.1133 22.6018 40.0887 22.5936 40.064 22.5936C40.0148 22.5854 39.9819 22.5772 39.9327 22.5689C39.9081 22.5607 39.867 22.5525 39.8423 22.5443C39.8177 22.5361 39.7767 22.5279 39.752 22.5033C39.5796 22.4376 39.4236 22.3309 39.2841 22.2159L39.2184 22.1502C39.2184 22.1502 39.1527 22.0928 39.1281 22.0599C39.0049 21.9204 38.9229 21.7726 38.849 21.592C38.8408 21.5673 38.8243 21.5345 38.8079 21.5099C38.7997 21.4688 38.7915 21.4442 38.7833 21.4031C38.7751 21.3785 38.7669 21.3375 38.7669 21.3128C38.7586 21.2718 38.7587 21.2472 38.7505 21.2061C38.7423 21.1568 38.7422 21.124 38.7422 21.0747C38.7422 21.0583 38.734 21.0255 38.734 21.0091V20.9516C38.734 20.9023 38.734 20.8613 38.7422 20.8202C38.7422 20.7956 38.7504 20.7546 38.7586 20.7299C38.7668 20.6889 38.7751 20.656 38.7833 20.615C38.7915 20.5904 38.7915 20.5575 38.7997 20.5411C38.8161 20.4836 38.8407 20.4262 38.8654 20.3687C38.8736 20.3523 38.8818 20.3194 38.89 20.303C38.9064 20.2538 38.9393 20.2209 38.9557 20.1799C38.9639 20.1635 38.9721 20.1552 38.9803 20.1306C39.0214 20.0731 39.0542 20.0157 39.1035 19.9746C39.1035 19.9664 39.1117 19.9664 39.1117 19.9664C39.1363 19.9418 39.1692 19.9089 39.1938 19.8843C39.2102 19.8761 39.2184 19.8597 39.243 19.8433C39.2595 19.8268 39.2841 19.8186 39.3005 19.794C39.3169 19.7858 39.3251 19.7694 39.3498 19.753C39.6535 19.4656 39.826 19.0633 39.826 18.6118C39.826 18.1602 39.6371 17.758 39.3498 17.4624C39.3005 17.4214 39.2676 17.3885 39.2184 17.3475C39.2184 17.3475 39.2129 17.342 39.202 17.331H39.1938C39.1938 17.331 39.1856 17.3228 39.1856 17.3146C39.1856 17.3146 39.1801 17.3091 39.1691 17.2982C39.1691 17.2982 39.1035 17.2243 39.0624 17.1833H39.0542C38.7669 16.8713 38.3482 16.6989 37.913 16.6989C37.4779 16.6989 37.0592 16.8795 36.7719 17.1751C36.7226 17.2243 36.6898 17.2654 36.6405 17.3228C36.3532 17.6266 35.9345 17.799 35.4911 17.799C35.2366 17.799 35.0068 17.7415 34.8015 17.643C34.2597 17.3803 33.882 16.8302 33.882 16.1899C33.8655 15.5002 34.2514 14.9502 34.7851 14.6875V14.7039ZM31.8706 7.52024C31.8706 7.52024 31.8459 7.54487 31.8295 7.56949C31.8213 7.58591 31.8049 7.59412 31.7802 7.61875C31.6981 7.70085 31.6079 7.77475 31.5094 7.83222C31.5011 7.83222 31.4929 7.84043 31.4929 7.84043C31.4354 7.86506 31.3862 7.9061 31.3369 7.93073C31.3287 7.93894 31.3205 7.93896 31.3123 7.94717C31.2466 7.9718 31.1809 8.00463 31.1152 8.02105C31.107 8.02105 31.0989 8.02104 31.0906 8.02925C31.0332 8.04567 30.9757 8.05389 30.91 8.07031C30.8936 8.07031 30.869 8.07853 30.8526 8.07853C30.7869 8.08674 30.713 8.09494 30.6391 8.09494C30.5652 8.09494 30.4995 8.08674 30.4256 8.07853C30.401 8.07853 30.3764 8.07031 30.3517 8.07031C30.3025 8.0621 30.2697 8.05389 30.2204 8.04568L30.1383 8.02105C30.1383 8.02105 30.0726 7.99641 30.0316 7.97999C29.9249 7.93894 29.8345 7.8979 29.7524 7.83222C29.736 7.82401 29.7278 7.8076 29.7032 7.79118C29.6539 7.76655 29.621 7.72549 29.5718 7.70086C29.5472 7.67623 29.5143 7.64339 29.4897 7.62697C29.4651 7.60234 29.4405 7.57771 29.4158 7.55308C29.3912 7.51203 29.3583 7.47921 29.3255 7.43816C29.3091 7.42174 29.3009 7.3971 29.2762 7.38068C29.2516 7.33142 29.2188 7.29858 29.2024 7.24932C29.1942 7.2329 29.1859 7.20827 29.1777 7.19185C29.1777 7.19185 29.1613 7.13437 29.1531 7.10974C29.1367 7.06869 29.1285 7.03587 29.1039 6.99482C29.0957 6.97019 29.0874 6.93734 29.0792 6.9045C29.071 6.86345 29.0628 6.8224 29.0546 6.78135C29.0464 6.75672 29.0464 6.72389 29.0464 6.70747C29.0382 6.64179 29.03 6.56789 29.03 6.494C29.03 6.42011 29.0382 6.35445 29.0464 6.28056C29.0464 6.26414 29.0546 6.23951 29.0546 6.22309C29.0628 6.16562 29.071 6.09994 29.0956 6.04247C29.0956 6.03426 29.0957 6.02605 29.1039 6.01784C29.1203 5.95216 29.1531 5.88649 29.1777 5.82081C29.1859 5.8126 29.186 5.80439 29.1942 5.79618C29.2188 5.73872 29.2516 5.68945 29.2762 5.64019C29.2845 5.63198 29.2845 5.62378 29.2927 5.61557C29.3337 5.5581 29.3748 5.50061 29.424 5.44314C29.4486 5.40209 29.4815 5.37746 29.5144 5.33641C29.5308 5.3282 29.539 5.31179 29.5636 5.29537C29.58 5.27895 29.5882 5.27075 29.6129 5.25433C29.6293 5.24612 29.6375 5.22968 29.6621 5.21326C29.9659 4.92592 30.1383 4.50722 30.1383 4.06389C30.1383 3.62055 29.9495 3.21007 29.6539 2.91451C29.6047 2.86525 29.5636 2.83242 29.5144 2.79137C29.2106 2.50402 29.0382 2.0853 29.0382 1.64197C29.0382 1.39567 29.0956 1.17402 29.1859 0.968774C29.4569 0.418713 30.0233 0.0328369 30.6637 0.0328369C31.3041 0.0328369 31.8706 0.418696 32.1251 0.976967C32.2154 1.18221 32.2729 1.4121 32.2729 1.65018C32.2729 2.10173 32.084 2.504 31.7967 2.79956C31.7474 2.84061 31.7064 2.88168 31.6571 2.92273C31.3534 3.21007 31.1809 3.62876 31.1809 4.06389C31.1809 4.49901 31.3698 4.91773 31.6571 5.20507H31.6653C31.6653 5.20507 31.731 5.27074 31.7556 5.29537C31.7638 5.30358 31.7803 5.31999 31.7967 5.33641C31.7967 5.33641 31.8022 5.3419 31.8131 5.35284C31.8624 5.4021 31.8952 5.44314 31.9362 5.4924C32.2236 5.79616 32.6423 5.96858 33.0856 5.96858C33.529 5.96858 33.9395 5.77976 34.235 5.4842C34.2843 5.43495 34.3171 5.39389 34.3582 5.34463C34.6455 5.04086 35.0642 4.86846 35.5076 4.86846C35.7539 4.86846 35.9755 4.92593 36.1808 5.01624C36.7308 5.27074 37.1249 5.82901 37.1249 6.47759C37.1249 7.12617 36.739 7.68444 36.1808 7.93895C35.9755 8.02926 35.7456 8.08672 35.5076 8.08672C35.056 8.08672 34.6537 7.8979 34.3664 7.61056C34.3253 7.5613 34.2843 7.50382 34.2432 7.47098C33.9559 7.16721 33.5372 6.99482 33.1021 6.99482C32.6669 6.99482 32.2482 7.18363 31.9609 7.47098C31.9116 7.47919 31.9034 7.49561 31.887 7.52024H31.8706ZM17.2488 10.172C17.5526 10.4594 17.7332 10.8781 17.7332 11.3214C17.7332 11.5677 17.6757 11.7894 17.5854 11.9946C17.3309 12.5447 16.7726 12.9388 16.1241 12.9388C15.4755 12.9388 14.9172 12.5529 14.6545 11.9946C14.5641 11.7894 14.5067 11.5595 14.5067 11.3214C14.5067 10.8699 14.6955 10.4676 14.9829 10.1803C15.0321 10.1392 15.0732 10.0981 15.1224 10.0571C15.4098 9.76974 15.5986 9.35104 15.5986 8.90771C15.5986 8.46437 15.4098 8.05389 15.1224 7.76655H15.1142C15.1142 7.76655 15.0403 7.70087 15.0075 7.65982C14.9993 7.65161 14.9911 7.6434 14.9829 7.63519H14.9747C14.9747 7.63519 14.9746 7.62696 14.9664 7.61875C14.9664 7.61875 14.9609 7.61329 14.95 7.60234C14.95 7.60234 14.8844 7.52847 14.8433 7.48742H14.8351C14.5478 7.17544 14.129 7.00301 13.6857 7.00301C13.2424 7.00301 12.8319 7.19186 12.5363 7.48742C12.487 7.53668 12.4542 7.57771 12.4132 7.62697C12.1258 7.93074 11.7071 8.10316 11.2638 8.10316C11.0175 8.10316 10.7958 8.04567 10.5906 7.95536C10.0405 7.70085 9.64645 7.14258 9.64645 6.494C9.64645 5.84542 10.0323 5.28715 10.5906 5.03265C10.7958 4.94234 11.0257 4.88488 11.2638 4.88488C11.7153 4.88488 12.1176 5.07369 12.4132 5.36104C12.4542 5.4103 12.4952 5.46778 12.5363 5.50062C12.8236 5.80438 13.2424 5.97678 13.6775 5.97678C14.1126 5.97678 14.5313 5.78796 14.8269 5.50062C14.8351 5.4842 14.8515 5.47599 14.8679 5.45136C14.8843 5.43494 14.8925 5.4103 14.9172 5.39388C14.9254 5.37746 14.9418 5.36926 14.9582 5.34463C15.0403 5.26253 15.1306 5.19684 15.2292 5.13116C15.2374 5.12295 15.2456 5.12296 15.2538 5.11475C15.3031 5.09012 15.3605 5.05728 15.4016 5.03265C15.4098 5.02444 15.4262 5.02445 15.4426 5.01624C15.5083 4.99161 15.5658 4.95877 15.6314 4.94235C15.6396 4.94235 15.6479 4.93413 15.6561 4.93413C15.7136 4.91771 15.771 4.90951 15.8285 4.89309C15.8449 4.89309 15.8695 4.88488 15.8859 4.88488C15.9516 4.87667 16.0255 4.86846 16.0994 4.86846C16.1733 4.86846 16.239 4.87667 16.3129 4.88488C16.3375 4.88488 16.3621 4.89309 16.3867 4.89309C16.436 4.9013 16.4688 4.90951 16.5099 4.91772C16.5345 4.92593 16.5673 4.93414 16.592 4.94235C16.633 4.95056 16.6659 4.96697 16.7069 4.98339C16.7316 4.9916 16.7644 4.99982 16.7891 5.02445H16.7972C16.7972 5.02445 16.8219 5.04086 16.8383 5.04086C16.8958 5.06549 16.945 5.09834 16.9861 5.12297C17.0107 5.13939 17.0353 5.16402 17.0517 5.18044C17.0928 5.20507 17.1256 5.22968 17.1585 5.26252C17.1995 5.28715 17.2242 5.32821 17.2488 5.35284C17.2652 5.36926 17.2898 5.39388 17.3144 5.41851C17.3555 5.45956 17.3801 5.50061 17.4212 5.54987C17.4294 5.56629 17.4376 5.5745 17.4458 5.59913C17.4869 5.64839 17.5115 5.70586 17.5361 5.75512C17.5443 5.76333 17.5444 5.77155 17.5526 5.79618C17.5526 5.79618 17.569 5.86184 17.5936 5.87826C17.61 5.91931 17.6182 5.95216 17.6429 5.99321C17.6511 6.01784 17.6593 6.05069 17.6675 6.07532C17.6757 6.12458 17.6839 6.15742 17.6921 6.20668C17.6921 6.23131 17.7003 6.25593 17.7003 6.28056C17.7085 6.34624 17.7168 6.42011 17.7168 6.494C17.7168 6.55968 17.7085 6.63357 17.7003 6.69925C17.7003 6.71567 17.6921 6.74031 17.6921 6.75673C17.6839 6.81419 17.6757 6.86346 17.6511 6.91271C17.6511 6.92913 17.6429 6.93734 17.6429 6.96197C17.6264 7.02765 17.5936 7.08513 17.5772 7.15081C17.569 7.16723 17.5608 7.19186 17.5526 7.20007C17.5361 7.24932 17.5033 7.29036 17.4787 7.33962C17.4704 7.35604 17.4623 7.36425 17.4541 7.38888C17.413 7.44635 17.3801 7.50382 17.3309 7.54487H17.3227C17.3227 7.54487 17.2652 7.61876 17.2406 7.6516C17.2242 7.65981 17.216 7.67624 17.1913 7.69266C17.1749 7.70908 17.1503 7.71729 17.1339 7.74192C17.1256 7.75013 17.1092 7.76654 17.0846 7.78296C16.7808 8.0703 16.6084 8.489 16.6084 8.93234C16.6084 9.37567 16.7973 9.78616 17.0928 10.0817C17.1585 10.0899 17.2078 10.1392 17.2488 10.172ZM9.71215 35.9264C9.71215 35.9264 9.6957 35.8525 9.68749 35.8115C9.67928 35.7868 9.67927 35.754 9.67106 35.7294C9.66285 35.6719 9.66284 35.6144 9.66284 35.5734V35.4995C9.66284 35.442 9.67106 35.3928 9.67106 35.3435C9.67106 35.3189 9.67928 35.286 9.67928 35.2696C9.68749 35.2204 9.69572 35.1793 9.70393 35.13C9.71214 35.1136 9.71211 35.089 9.72032 35.0726C9.73674 35.0069 9.76959 34.9494 9.78601 34.892C9.79422 34.8755 9.80245 34.8509 9.81066 34.8427C9.82708 34.7934 9.85989 34.7524 9.88452 34.7031C9.89273 34.6949 9.90097 34.6785 9.90918 34.6621C9.95023 34.6046 9.98304 34.5471 10.0323 34.5061C10.0405 34.4979 10.0405 34.4897 10.0487 34.4897C10.0734 34.465 10.098 34.4322 10.1226 34.4076C10.1309 34.3994 10.1473 34.3912 10.1637 34.3829C10.1801 34.3665 10.2129 34.3419 10.2293 34.3255C10.2375 34.3173 10.254 34.3091 10.2704 34.2844C10.5742 33.9971 10.7465 33.5784 10.7465 33.1351C10.7465 32.6917 10.5578 32.2812 10.2704 31.9939C10.2212 31.9446 10.1801 31.9118 10.1226 31.8707C9.81888 31.5834 9.64645 31.1647 9.64645 30.7213C9.64645 30.4751 9.70393 30.237 9.80244 30.0317C10.0652 29.4899 10.6152 29.1122 11.2556 29.1122C11.8959 29.1122 12.446 29.4899 12.7087 30.0317C12.8154 30.2452 12.8647 30.4833 12.8647 30.7213C12.8647 31.1729 12.6759 31.5834 12.3885 31.8707C12.3393 31.9118 12.2982 31.9446 12.249 31.9939C11.9452 32.2812 11.7728 32.6999 11.7728 33.1433C11.7728 33.5866 11.9616 34.0053 12.2572 34.2926H12.2654C12.3229 34.3419 12.3721 34.3829 12.4132 34.4322C12.4214 34.4486 12.4378 34.4568 12.4542 34.4815C12.4706 34.5061 12.5035 34.539 12.5199 34.5554H12.5281C12.8155 34.8673 13.2341 35.0397 13.6775 35.0397C14.1208 35.0397 14.5395 34.8509 14.8269 34.5554C14.8433 34.539 14.8515 34.5143 14.8761 34.4979C14.8843 34.4897 14.9008 34.4733 14.9172 34.4568C14.9254 34.4404 14.9418 34.4322 14.9582 34.4076C14.9828 34.3829 15.0239 34.3419 15.065 34.3173C15.1224 34.268 15.1799 34.2352 15.2374 34.1859C15.2456 34.1777 15.2538 34.1777 15.262 34.1695C15.3194 34.1285 15.3687 34.1038 15.4344 34.0792C15.4426 34.0792 15.4508 34.071 15.4591 34.071C15.5247 34.0463 15.5904 34.0135 15.6561 33.9971C15.6643 33.9971 15.6725 33.9971 15.6725 33.9889C15.7299 33.9725 15.7956 33.9642 15.8531 33.9478C15.8695 33.9478 15.8942 33.9396 15.9024 33.9396C15.9681 33.9314 16.042 33.9232 16.1158 33.9232C16.1815 33.9232 16.2554 33.9314 16.3211 33.9396C16.3457 33.9396 16.3703 33.9478 16.3949 33.9478C16.4442 33.956 16.4771 33.9642 16.5263 33.9725C16.551 33.9807 16.5838 33.9807 16.6002 33.9889C16.6495 34.0053 16.6823 34.0135 16.7316 34.0381C16.9532 34.1285 17.1667 34.2762 17.3227 34.4568C17.3637 34.5061 17.3966 34.5472 17.4376 34.6046C17.4458 34.6128 17.4458 34.621 17.4541 34.6293C17.5115 34.7114 17.5608 34.8016 17.5936 34.892C17.61 34.933 17.6347 34.9659 17.6429 35.0151C17.6511 35.0397 17.6593 35.0726 17.6675 35.0972C17.6757 35.1465 17.6839 35.1793 17.6921 35.2286C17.6921 35.2532 17.7003 35.2778 17.7003 35.3024C17.7085 35.3681 17.7168 35.442 17.7168 35.5159C17.7168 35.5898 17.7085 35.6555 17.7003 35.7294C17.7003 35.7458 17.6921 35.7704 17.6921 35.7868C17.6839 35.8443 17.6757 35.91 17.6511 35.9675C17.6511 35.9757 17.6511 35.9839 17.6429 35.9921C17.6264 36.0578 17.5936 36.1234 17.569 36.1891C17.5607 36.1973 17.5608 36.2137 17.5526 36.2302C17.5279 36.2876 17.4951 36.3451 17.4622 36.3862C17.4622 36.3944 17.4541 36.3944 17.4541 36.4026C17.3884 36.4929 17.3227 36.5914 17.2406 36.6653C17.2242 36.6817 17.1913 36.7063 17.1749 36.7228C17.1667 36.731 17.1585 36.7392 17.1503 36.7474C17.1339 36.7556 17.1257 36.772 17.101 36.7885C16.7973 37.0758 16.6248 37.4945 16.6248 37.9378C16.6248 38.3812 16.8136 38.7917 17.1092 39.0872C17.1585 39.1365 17.1995 39.1693 17.2488 39.2104C17.5526 39.4977 17.7332 39.9164 17.7332 40.3597C17.7332 40.606 17.6757 40.8277 17.5854 41.0329C17.3309 41.583 16.7726 41.9771 16.1241 41.9771C15.4755 41.9771 14.9172 41.5912 14.6545 41.0329C14.5641 40.8277 14.5067 40.5978 14.5067 40.3597C14.5067 39.9082 14.6955 39.5059 14.9829 39.2186C15.0321 39.1775 15.0732 39.1365 15.1224 39.0954C15.4098 38.8081 15.5986 38.4058 15.5986 37.9542C15.5986 37.5027 15.4098 37.1004 15.1224 36.8131C15.1224 36.8131 15.1169 36.8103 15.106 36.8049C15.106 36.8049 15.0403 36.7474 15.0157 36.7228C15.0075 36.7146 14.9911 36.7063 14.9747 36.6981H14.9664C14.9664 36.6981 14.9664 36.6899 14.9582 36.6817C14.9172 36.6407 14.8844 36.5996 14.8433 36.5504C14.556 36.2384 14.1372 36.066 13.6939 36.066C13.2506 36.066 12.8401 36.2548 12.5527 36.5421C12.5445 36.5504 12.5363 36.5586 12.5281 36.5668C12.5117 36.5832 12.4871 36.6078 12.4707 36.6242C12.4542 36.6407 12.446 36.6653 12.4214 36.6817C12.3968 36.7064 12.3721 36.731 12.3475 36.7474C12.3475 36.7474 12.342 36.7529 12.331 36.7638C12.2736 36.8131 12.2161 36.8541 12.1587 36.8952C12.1505 36.8952 12.1504 36.9034 12.1422 36.9034C12.0848 36.9444 12.0355 36.9691 11.9862 36.9937C11.978 37.0019 11.9616 37.0019 11.9452 37.0101C11.8795 37.0347 11.8139 37.0676 11.7482 37.084C11.74 37.084 11.7317 37.084 11.7317 37.0922C11.6743 37.1086 11.6086 37.1168 11.5429 37.1333C11.5265 37.1333 11.5019 37.1415 11.4855 37.1415C11.4198 37.1497 11.3459 37.1579 11.272 37.1579C11.1981 37.1579 11.1324 37.1497 11.0585 37.1415C11.0339 37.1415 11.0011 37.1333 10.9764 37.1333C10.9354 37.125 10.8943 37.1168 10.8533 37.1086C10.8287 37.1004 10.7876 37.0922 10.763 37.084C10.7384 37.0758 10.6973 37.0594 10.6727 37.043C10.566 37.0019 10.4756 36.9608 10.3853 36.8952C10.3771 36.887 10.3689 36.8787 10.3607 36.8705C10.3115 36.8295 10.2704 36.8049 10.2212 36.7556C10.0241 36.5832 9.87631 36.3615 9.77779 36.1152C9.76958 36.0906 9.7614 36.066 9.75319 36.0414C9.7614 35.9839 9.75318 35.9592 9.74497 35.9182L9.71215 35.9264ZM0.0655464 21.6741C-0.0247622 21.4688 -0.0822754 21.2389 -0.0822754 21.0009C-0.0822754 20.5493 0.106566 20.147 0.393911 19.8515C0.443171 19.8104 0.500626 19.7694 0.533465 19.7283C0.83723 19.441 1.00965 19.0387 1.00965 18.5872C1.00965 18.1356 0.820811 17.7333 0.533465 17.4378C0.484206 17.3885 0.443171 17.3557 0.393911 17.3146C0.090146 17.0273 -0.0822754 16.6086 -0.0822754 16.1735C-0.0822754 15.9189 -0.0248043 15.6891 0.0737142 15.4838C0.33643 14.942 0.886508 14.5643 1.52688 14.5643C2.16725 14.5643 2.71733 14.942 2.98004 15.4838C3.08677 15.6891 3.13603 15.9354 3.13603 16.1735C3.13603 16.625 2.94719 17.0355 2.65984 17.3228C2.61059 17.3639 2.56955 17.3967 2.52029 17.446C2.21653 17.7333 2.0441 18.1356 2.0441 18.5954C2.0441 18.9894 2.18365 19.3507 2.42994 19.638C2.70087 19.794 2.91433 20.0403 3.04568 20.3194C3.15241 20.5329 3.20167 20.771 3.20167 21.0091C3.20167 21.4606 3.01288 21.8629 2.72554 22.1585C2.67628 22.1995 2.63519 22.2323 2.58593 22.2816C2.28217 22.5689 2.1098 22.9876 2.1098 23.431C2.1098 23.8743 2.29859 24.2848 2.58593 24.5804C2.63519 24.6296 2.67628 24.6625 2.72554 24.7035C3.0293 24.9909 3.20167 25.4096 3.20167 25.8529C3.20167 26.0992 3.14421 26.3209 3.0539 26.5261C2.7994 27.0762 2.24115 27.4702 1.59257 27.4702C0.943991 27.4702 0.385695 27.0844 0.131189 26.5261C0.0408807 26.3209 -0.0165824 26.091 -0.0165824 25.8529C-0.0165824 25.4014 0.172259 24.9991 0.459604 24.7117C0.508864 24.6707 0.549899 24.6296 0.599158 24.5886C0.902923 24.3012 1.07534 23.899 1.07534 23.4474C1.07534 23.0533 0.935751 22.6921 0.689455 22.4047C0.418529 22.2077 0.196904 21.9614 0.0655464 21.6659V21.6741ZM19.9581 22.2734C20.2618 22.5607 20.4342 22.963 20.4342 23.4146C20.4342 23.8661 20.2454 24.2684 19.9581 24.5557C19.9088 24.605 19.8678 24.6378 19.8185 24.6789C19.5147 24.9662 19.3423 25.3849 19.3423 25.8201C19.3423 26.0663 19.3998 26.288 19.4901 26.4933C19.7446 27.0433 20.3028 27.4374 20.9514 27.4374C21.6 27.4374 22.1583 27.0515 22.4128 26.4933C22.5031 26.288 22.5606 26.0581 22.5606 25.8201C22.5606 25.3685 22.3717 24.9662 22.0844 24.6707C22.0351 24.6296 21.9941 24.5968 21.9448 24.5475C21.6411 24.2602 21.4605 23.8415 21.4605 23.3981C21.4605 22.9548 21.6493 22.5443 21.9366 22.2488C21.9859 22.2077 22.027 22.1749 22.0762 22.1256C22.0762 22.1256 22.0817 22.1229 22.0926 22.1174C22.0926 22.1174 22.1172 22.0928 22.1336 22.0764C22.1583 22.0517 22.1911 22.0189 22.2158 21.986H22.224C22.5113 21.6741 22.9136 21.5017 23.3651 21.5017C23.8167 21.5017 24.219 21.6905 24.5063 21.9778C24.5474 22.0271 24.5802 22.0681 24.6295 22.1174L24.6377 22.1338C24.6459 22.142 24.6623 22.1502 24.6787 22.1585C24.7034 22.1831 24.7444 22.2159 24.769 22.2406H24.7772C25.081 22.5443 25.2534 22.9466 25.2534 23.3899C25.2534 23.8333 25.0646 24.2438 24.7772 24.5311C24.7608 24.5475 24.7362 24.5557 24.728 24.5804C24.7116 24.5968 24.6869 24.605 24.6787 24.6296C24.6623 24.6378 24.6541 24.6543 24.6295 24.6707C24.6048 24.6953 24.572 24.7281 24.5473 24.761H24.5392C24.4899 24.8267 24.4571 24.8759 24.416 24.9334C24.4078 24.9416 24.3996 24.958 24.3914 24.9744C24.3667 25.0237 24.3339 25.0648 24.3175 25.114C24.3093 25.1304 24.3011 25.1386 24.3011 25.1633C24.2764 25.2207 24.2518 25.2864 24.2272 25.3521C24.2272 25.3603 24.219 25.3767 24.219 25.3931C24.2026 25.4506 24.1944 25.5081 24.1779 25.5655C24.1779 25.582 24.1697 25.6066 24.1697 25.623C24.1615 25.6887 24.1533 25.7626 24.1533 25.8283C24.1533 25.9022 24.1615 25.9678 24.1697 26.0335C24.1697 26.0581 24.1779 26.0828 24.1779 26.1074C24.1862 26.1485 24.1943 26.1895 24.2025 26.2305C24.2108 26.2552 24.219 26.288 24.2272 26.3127C24.2354 26.3373 24.2436 26.3783 24.2682 26.4029C24.3585 26.6492 24.5145 26.8545 24.7033 27.0187C24.7526 27.0597 24.7937 27.0926 24.8429 27.1254C24.8511 27.1336 24.8676 27.1418 24.884 27.15C24.9414 27.1911 25.0071 27.2239 25.0728 27.2568H25.081C25.081 27.2568 25.1303 27.2732 25.1549 27.2814C25.196 27.2978 25.2288 27.306 25.2698 27.3307C25.2944 27.3389 25.3273 27.3471 25.3602 27.3553C25.4012 27.3635 25.4422 27.3717 25.4833 27.3799C25.5079 27.3881 25.5408 27.3881 25.5654 27.3881C25.6311 27.3964 25.7049 27.4046 25.7788 27.4046C25.8527 27.4046 25.9184 27.3964 25.9923 27.3881C26.0087 27.3881 26.0333 27.3799 26.0498 27.3799C26.1154 27.3717 26.1729 27.3553 26.2386 27.3389C26.2386 27.3389 26.2441 27.3361 26.255 27.3307C26.3207 27.3142 26.3864 27.2814 26.452 27.2568C26.4603 27.2486 26.4685 27.2486 26.4931 27.2404C26.5506 27.2157 26.608 27.1829 26.6655 27.15C26.6655 27.15 26.6737 27.1501 26.6737 27.1419C26.7394 27.1008 26.7968 27.0598 26.8543 27.0105C26.8789 26.9859 26.9118 26.9612 26.9364 26.9366C26.9529 26.9202 26.9775 26.8955 26.9939 26.8709C27.0021 26.8627 27.0103 26.8463 27.035 26.8299C27.0432 26.8135 27.0596 26.8052 27.076 26.7806C27.3633 26.4769 27.7656 26.3044 28.2172 26.3044C28.6687 26.3044 29.071 26.4933 29.3584 26.7806C29.4076 26.8299 29.4404 26.8709 29.4815 26.9202C29.7688 27.2239 30.1876 27.3964 30.6309 27.3964C30.8772 27.3964 31.0989 27.3389 31.3041 27.2486C31.8542 26.9941 32.2482 26.4358 32.2482 25.7872C32.2482 25.1386 31.8624 24.5804 31.3041 24.3258C31.0989 24.2355 30.869 24.1781 30.6309 24.1781C30.1793 24.1781 29.7688 24.3669 29.4815 24.6542C29.4404 24.7035 29.4076 24.7446 29.3584 24.7938C29.071 25.0976 28.6523 25.27 28.209 25.27C27.7656 25.27 27.3551 25.0812 27.0596 24.7938C27.0349 24.7528 26.9939 24.7199 26.9529 24.6789C26.9447 24.6707 26.9364 24.6624 26.9364 24.6542H26.9282L26.92 24.6378C26.9118 24.6296 26.9036 24.6214 26.8954 24.6214C26.8544 24.5968 26.8297 24.5557 26.7887 24.5311C26.7887 24.5311 26.7805 24.5311 26.7805 24.5229C26.4767 24.2356 26.3043 23.8168 26.3043 23.3735C26.3043 22.9302 26.4931 22.5197 26.7805 22.2241C26.7887 22.2159 26.8051 22.2077 26.8215 22.1831C26.8379 22.1749 26.8461 22.1584 26.8708 22.142C26.8872 22.1256 26.9118 22.1174 26.9282 22.0928C26.9529 22.0763 26.9775 22.0435 26.9939 22.0189C27.0021 22.0107 27.0103 22.0025 27.0103 22.0025C27.0596 21.9532 27.0924 21.8957 27.1335 21.8465C27.1417 21.8383 27.1499 21.8219 27.1499 21.8054C27.1745 21.7562 27.2074 21.7151 27.232 21.6659C27.2402 21.6494 27.2484 21.6412 27.2566 21.6166C27.2813 21.5591 27.3141 21.4934 27.3305 21.4278C27.3305 21.4196 27.3387 21.4113 27.3387 21.4031C27.3551 21.3457 27.3633 21.2882 27.3798 21.2307C27.3798 21.2143 27.388 21.1897 27.388 21.1733C27.3962 21.1076 27.4044 21.0337 27.4044 20.9598C27.4044 20.8859 27.3962 20.8202 27.388 20.7464C27.388 20.7217 27.3798 20.6889 27.3798 20.6725C27.3716 20.6314 27.3634 20.5904 27.3552 20.5493C27.3469 20.5247 27.3387 20.4836 27.3305 20.459C27.3223 20.418 27.3059 20.3851 27.2812 20.3441C27.273 20.3194 27.2649 20.2948 27.2566 20.2702C27.2566 20.2702 27.2566 20.262 27.2484 20.262C27.1581 20.0649 27.0103 19.8843 26.8461 19.7448C26.723 19.638 26.5916 19.5559 26.4438 19.4902C26.3864 19.4738 26.3371 19.441 26.2878 19.4246C26.2632 19.4163 26.2386 19.4081 26.214 19.4081C26.1647 19.3999 26.1236 19.3917 26.0826 19.3835C26.0662 19.3835 26.0334 19.3753 26.0169 19.3753C25.9513 19.3671 25.8774 19.3589 25.8117 19.3589C25.7378 19.3589 25.6721 19.3671 25.5982 19.3753C25.5818 19.3753 25.5572 19.3835 25.5408 19.3835C25.4833 19.3917 25.4258 19.3999 25.3683 19.4246C25.3601 19.4246 25.3519 19.4328 25.3437 19.4328C25.278 19.4492 25.2124 19.482 25.1467 19.5067C25.1385 19.5149 25.1303 19.5149 25.122 19.5231C25.0646 19.5477 25.0071 19.5806 24.9661 19.6134C24.9578 19.6134 24.9497 19.6216 24.9497 19.6216C24.8429 19.6873 24.7608 19.7612 24.6787 19.8433C24.6705 19.8597 24.6541 19.8843 24.6295 19.9007C24.6213 19.909 24.613 19.9172 24.613 19.9254C24.5966 19.9418 24.572 19.9664 24.5638 19.9828C24.2764 20.2866 23.8577 20.4672 23.4144 20.4672C22.971 20.4672 22.5606 20.2784 22.265 19.991C22.2486 19.9746 22.2404 19.95 22.2158 19.9336C22.2076 19.9254 22.1994 19.9089 22.1747 19.8925C22.1665 19.8761 22.1501 19.8679 22.1336 19.8433C22.0515 19.7612 21.9613 19.6873 21.8628 19.6298C21.8545 19.6216 21.8463 19.6216 21.8381 19.6134C21.7888 19.5888 21.7314 19.5477 21.6821 19.5313C21.6739 19.5231 21.6657 19.5231 21.6575 19.5149C21.5918 19.4902 21.5262 19.4574 21.4605 19.441C21.4523 19.441 21.444 19.4328 21.4358 19.4328C21.3784 19.4164 21.3209 19.4082 21.2634 19.3917C21.247 19.3917 21.2224 19.3835 21.206 19.3835C21.1403 19.3753 21.0664 19.3671 20.9925 19.3671C20.9186 19.3671 20.8529 19.3753 20.779 19.3835C20.7544 19.3835 20.7298 19.3917 20.7051 19.3917C20.6641 19.3999 20.6231 19.4082 20.582 19.4164C20.5574 19.4246 20.5163 19.4328 20.4917 19.441C20.4506 19.4492 20.426 19.4656 20.385 19.482C20.3604 19.4902 20.3193 19.5066 20.2946 19.5231C20.2864 19.5231 20.2865 19.5313 20.2783 19.5313C20.2126 19.5559 20.1551 19.597 20.0976 19.638C20.0894 19.6462 20.0812 19.6544 20.0566 19.6626C20.0073 19.7037 19.9663 19.7283 19.917 19.7694C19.9006 19.7858 19.876 19.8104 19.8513 19.835C19.8267 19.8597 19.7857 19.8925 19.761 19.9254C19.7364 19.9664 19.7035 19.9911 19.6789 20.0321C19.6625 20.0567 19.6378 20.0814 19.6214 20.0978C19.5968 20.147 19.564 20.1881 19.5476 20.2373C19.5394 20.2538 19.5311 20.262 19.5229 20.2866C19.5229 20.2866 19.5065 20.3523 19.4983 20.3687C19.4819 20.4098 19.4737 20.4426 19.4573 20.4836C19.4491 20.5083 19.4408 20.5411 19.4326 20.574C19.4244 20.615 19.4162 20.656 19.408 20.6971C19.3998 20.7217 19.3998 20.7464 19.3998 20.771C19.3916 20.8367 19.3834 20.9106 19.3834 20.9844C19.3834 21.0583 19.3916 21.124 19.3998 21.1897C19.3998 21.2061 19.408 21.2307 19.408 21.2471C19.4162 21.3046 19.4244 21.3621 19.449 21.4196C19.449 21.4278 19.4573 21.436 19.4573 21.4442C19.4737 21.5099 19.5065 21.5755 19.5311 21.633C19.5393 21.6412 19.5394 21.6494 19.5476 21.6741C19.5722 21.7315 19.605 21.789 19.6379 21.8301C19.6379 21.8383 19.6461 21.8383 19.6461 21.8465C19.7118 21.9368 19.7857 22.0353 19.8595 22.1174C19.876 22.1338 19.9006 22.142 19.917 22.1666C19.9252 22.1749 19.9334 22.1831 19.9416 22.1913C19.9662 22.2487 19.9909 22.257 20.0073 22.2734H19.9581Z" fill="white"/>
<path d="M29.9576 9.86006C30.1628 9.75333 30.4091 9.70407 30.6472 9.70407C31.0988 9.70407 31.501 9.89291 31.7966 10.1803C31.8376 10.2295 31.8705 10.2705 31.9197 10.3198C32.2071 10.6236 32.6257 10.796 33.0691 10.796C33.5124 10.796 33.9229 10.6072 34.2185 10.3116C34.2677 10.2624 34.3006 10.2213 34.3417 10.172C34.629 9.86827 35.0477 9.69587 35.491 9.69587C35.7373 9.69587 35.959 9.75334 36.1642 9.84365C36.7143 10.0982 37.1084 10.6564 37.1084 11.305C37.1084 11.9536 36.7225 12.5119 36.1642 12.7664C35.959 12.8567 35.7291 12.9141 35.491 12.9141C35.0395 12.9141 34.6372 12.7253 34.3498 12.438C34.3088 12.3887 34.2678 12.3476 34.2267 12.2984C33.9394 12.011 33.5206 11.8222 33.0855 11.8222C32.6504 11.8222 32.2317 12.011 31.9443 12.2984C31.8951 12.3476 31.8623 12.3887 31.8212 12.438C31.5339 12.7417 31.1152 12.9141 30.68 12.9141C30.4255 12.9141 30.1956 12.8567 29.9904 12.7581C29.4485 12.4954 29.0709 11.9454 29.0709 11.305C29.0298 10.6811 29.4075 10.1228 29.9493 9.86006H29.9576ZM24.81 2.89807C24.81 2.89807 24.7361 2.83241 24.6951 2.80778C24.6868 2.79957 24.6786 2.79136 24.6704 2.78315H24.6622C24.6622 2.78315 24.6622 2.77493 24.654 2.77493C24.654 2.76672 24.6457 2.76673 24.6457 2.75852C24.6047 2.71747 24.5719 2.68464 24.5391 2.63538H24.5308C24.2435 2.3234 23.8248 2.151 23.3897 2.151C22.9545 2.151 22.5358 2.33981 22.2485 2.62716C22.2403 2.63537 22.2321 2.65178 22.2239 2.6682C22.2075 2.68462 22.1992 2.70925 22.1746 2.72567C22.1582 2.74209 22.1336 2.76673 22.1254 2.78315C22.1089 2.80778 22.0761 2.8324 22.0514 2.84882H22.0432C21.9283 2.95555 21.8051 3.03764 21.6738 3.10332H21.6574C21.6081 3.11974 21.567 3.14438 21.5178 3.1608C21.5096 3.1608 21.5014 3.16901 21.4932 3.16901C21.4439 3.18543 21.4111 3.19363 21.3618 3.21005C21.3536 3.21005 21.3372 3.21827 21.3208 3.21827C21.2715 3.22648 21.2387 3.23468 21.1894 3.23468C21.1812 3.23468 21.1648 3.2429 21.1484 3.2429C21.0909 3.25111 21.0252 3.25112 20.9677 3.25112C20.9021 3.25112 20.8446 3.25111 20.7871 3.2429H20.7707C20.7132 3.23469 20.6558 3.22648 20.6147 3.21827C20.311 3.15259 20.04 2.9966 19.8266 2.77493C19.8101 2.75851 19.7855 2.7339 19.7773 2.71748C19.7609 2.70106 19.7527 2.67641 19.728 2.6682C19.7198 2.65999 19.7116 2.65178 19.7034 2.64357C19.4161 2.33981 18.9974 2.16741 18.554 2.16741C18.1107 2.16741 17.692 2.35623 17.4047 2.64357C17.3554 2.69283 17.3226 2.73389 17.2815 2.78315C16.9942 3.08691 16.5754 3.25931 16.1321 3.25931C15.8858 3.25931 15.6642 3.20185 15.4589 3.11154C14.9089 2.85703 14.5148 2.29875 14.5148 1.64197C14.5148 0.985175 14.9007 0.435115 15.4589 0.180609C15.6642 0.0903 15.894 0.0328369 16.1321 0.0328369C16.5837 0.0328369 16.9859 0.221678 17.2733 0.509024C17.3143 0.558283 17.3554 0.599318 17.3965 0.648577C17.6838 0.952343 18.1025 1.12476 18.5458 1.12476C18.9891 1.12476 19.3997 0.935923 19.687 0.648577C19.6952 0.640368 19.7116 0.623958 19.728 0.607538C19.7362 0.591118 19.7527 0.58291 19.7691 0.558281C19.7855 0.541861 19.8101 0.517217 19.8266 0.492588C19.843 0.476168 19.8758 0.44334 19.9005 0.42692H19.9087C20.1057 0.246303 20.3438 0.114935 20.5983 0.0574655H20.6065C20.6558 0.0492557 20.7132 0.0410468 20.7543 0.0328369H20.7789C20.8446 0.0328369 20.9103 0.0328369 20.9677 0.0328369C21.0252 0.0328369 21.0909 0.0328449 21.1484 0.0410548H21.173C21.2222 0.0492647 21.2797 0.0574735 21.3208 0.0656834H21.3372C21.3947 0.0738933 21.4439 0.090311 21.4932 0.114941C21.7313 0.197039 21.9447 0.328406 22.1089 0.509024C22.1253 0.525443 22.15 0.550062 22.1664 0.574692C22.1746 0.582901 22.191 0.599311 22.2074 0.615731C22.2156 0.623941 22.2239 0.640376 22.2321 0.656795C22.5194 0.960561 22.9381 1.13296 23.3814 1.13296C23.8248 1.13296 24.2353 0.944133 24.5308 0.648577C24.5473 0.632158 24.5555 0.607522 24.5801 0.591102C24.5883 0.582892 24.5965 0.574684 24.6047 0.566474C24.6211 0.550054 24.6293 0.541846 24.654 0.517216C24.7361 0.435118 24.8264 0.361238 24.9249 0.295559C24.9331 0.287349 24.9413 0.287358 24.9496 0.279148C24.9988 0.254519 25.0563 0.221674 25.1055 0.197044C25.1138 0.188835 25.1302 0.188818 25.1466 0.180609C25.2123 0.155979 25.2697 0.123143 25.3354 0.106723C25.3436 0.106723 25.3518 0.0985299 25.3764 0.0985299C25.4339 0.0821102 25.4914 0.0738853 25.5489 0.0574655C25.5653 0.0574655 25.5899 0.0492727 25.6063 0.0492727C25.672 0.0410628 25.7459 0.0328369 25.8198 0.0328369C25.8937 0.0328369 25.9594 0.0410628 26.025 0.0492727C26.0497 0.0492727 26.0825 0.0574655 26.0989 0.0574655C26.14 0.0656754 26.1728 0.0738843 26.2139 0.0820942C26.2385 0.090304 26.2795 0.0985129 26.3042 0.106723C26.3288 0.114933 26.3617 0.123142 26.3863 0.131351C26.6326 0.22166 26.846 0.377647 27.0102 0.566474C27.1333 0.697832 27.2237 0.853817 27.2894 1.02622C27.2976 1.05085 27.314 1.09192 27.3304 1.11655C27.3386 1.14118 27.3468 1.18223 27.355 1.22328C27.3633 1.26433 27.3714 1.29715 27.3796 1.3382C27.3879 1.36283 27.3879 1.39568 27.3961 1.42031C27.4043 1.48599 27.4125 1.55988 27.4125 1.63377C27.4125 1.70766 27.4043 1.77332 27.3961 1.84721C27.3961 1.86363 27.3879 1.88827 27.3879 1.90469C27.3797 1.96216 27.3715 2.02784 27.3468 2.08531C27.3468 2.09352 27.3468 2.10172 27.3386 2.10993C27.3222 2.17561 27.2893 2.2413 27.2647 2.29877C27.2565 2.31519 27.2565 2.3234 27.2483 2.34803C27.2237 2.4055 27.1908 2.45475 27.1662 2.4958C27.158 2.50401 27.158 2.51222 27.1498 2.52043C27.1087 2.5779 27.0677 2.63536 27.0184 2.69283C27.0184 2.70104 27.0102 2.70105 27.0102 2.70105C26.9856 2.72568 26.961 2.75851 26.9363 2.77493C26.9199 2.79135 26.8953 2.81598 26.8789 2.82419C26.8706 2.8324 26.8542 2.84883 26.8378 2.86525C26.8214 2.88167 26.8132 2.88166 26.7968 2.90629C26.493 3.19364 26.3206 3.61234 26.3206 4.05567C26.3206 4.499 26.5094 4.91773 26.7968 5.20507C26.846 5.24612 26.8871 5.28717 26.9363 5.32822C27.2401 5.61556 27.4207 6.03426 27.4207 6.47759C27.4207 6.72389 27.3632 6.94556 27.2729 7.15081C27.0184 7.70087 26.4602 8.09494 25.8116 8.09494C25.163 8.09494 24.6047 7.70908 24.3502 7.15081C24.2599 6.94556 24.2024 6.71568 24.2024 6.47759C24.2024 6.02605 24.3913 5.62375 24.6786 5.33641C24.7279 5.29536 24.7689 5.25431 24.8182 5.21326C25.1219 4.92592 25.2944 4.52365 25.2944 4.07211C25.2697 3.62877 25.0891 3.21828 24.7771 2.92273C24.7771 2.93094 24.7853 2.93094 24.7771 2.92273L24.81 2.89807ZM29.5142 17.2982C29.2269 17.0109 29.0381 16.5922 29.0381 16.157C29.0381 15.9025 29.0955 15.6727 29.194 15.4674C29.4568 14.9256 30.0068 14.5479 30.6472 14.5479C31.2876 14.5479 31.8376 14.9256 32.1003 15.4674C32.2071 15.6727 32.2563 15.919 32.2563 16.157C32.2563 16.6086 32.0675 17.0191 31.7801 17.3064C31.7309 17.3475 31.6898 17.3803 31.6406 17.4296C31.3368 17.7169 31.1644 18.1192 31.1644 18.5789C31.1644 19.0387 31.3532 19.4328 31.6406 19.7283H31.6488C31.6488 19.7283 31.7062 19.7858 31.7309 19.8104C31.7391 19.8186 31.7555 19.8351 31.772 19.8515C31.772 19.8515 31.7747 19.8569 31.7801 19.8679H31.7883C31.8294 19.9172 31.8622 19.9582 31.9033 20.0075C32.1906 20.3112 32.6094 20.4836 33.0527 20.4836C33.496 20.4836 33.9065 20.2948 34.202 19.9993C34.2185 19.9828 34.2431 19.9582 34.2595 19.9418C34.2677 19.9336 34.2677 19.9254 34.276 19.9172C34.2924 19.9007 34.3006 19.8761 34.3252 19.8597C34.4073 19.7776 34.5058 19.7037 34.5962 19.638C34.6044 19.638 34.6125 19.6298 34.6125 19.6298C34.67 19.5888 34.7193 19.5641 34.785 19.5395C34.7932 19.5395 34.8014 19.5313 34.8096 19.5313C34.8753 19.5067 34.941 19.4738 35.0067 19.4574C35.0149 19.4574 35.023 19.4574 35.0313 19.4492C35.0887 19.4328 35.1544 19.4246 35.2119 19.4081C35.2283 19.4081 35.2529 19.3999 35.2612 19.3999C35.3268 19.3917 35.4007 19.3835 35.4746 19.3835C35.5485 19.3835 35.6141 19.3917 35.6798 19.3999C35.6962 19.3999 35.7291 19.4081 35.7455 19.4081C35.7948 19.4164 35.8358 19.4246 35.8851 19.4328C35.9015 19.441 35.9343 19.441 35.9508 19.4492C36.0082 19.4656 36.0575 19.4902 36.0985 19.5067C36.2463 19.5723 36.3859 19.6544 36.509 19.7612C36.5337 19.7858 36.5665 19.8186 36.5994 19.8515C36.6158 19.8679 36.6486 19.9007 36.665 19.9172C36.7799 20.0485 36.8703 20.1963 36.9442 20.3687C36.9606 20.4098 36.9688 20.4426 36.9934 20.4836C37.0016 20.5083 37.0098 20.5411 37.018 20.5657C37.0262 20.6068 37.0345 20.6478 37.0427 20.6971C37.0427 20.7217 37.0509 20.7464 37.0509 20.771C37.0591 20.8367 37.0673 20.9106 37.0673 20.9762C37.0673 21.0501 37.0591 21.1158 37.0509 21.1897C37.0509 21.2061 37.0427 21.2307 37.0427 21.239C37.0345 21.3046 37.0181 21.3703 36.9934 21.4278V21.4442C36.977 21.5099 36.9441 21.5756 36.9195 21.6412C36.9113 21.6494 36.9113 21.6576 36.9031 21.6659C36.8785 21.7233 36.8456 21.7808 36.8128 21.8383H36.8046C36.7636 21.9121 36.7225 21.9696 36.6732 22.0271C36.6486 22.0517 36.6158 22.0846 36.5994 22.1092C36.5829 22.1256 36.5583 22.1502 36.5337 22.1666C36.5255 22.1749 36.5172 22.1831 36.509 22.1913C36.4926 22.1995 36.4844 22.2159 36.4598 22.2323C36.156 22.5197 35.9836 22.9384 35.9836 23.3817C35.9836 23.8251 36.1724 24.2355 36.468 24.5311C36.468 24.5311 36.4762 24.5311 36.4762 24.5393C36.5173 24.5639 36.5501 24.5968 36.5829 24.6296C36.5911 24.6378 36.5993 24.646 36.6075 24.646H36.6158L36.624 24.6625C36.6322 24.6707 36.6404 24.6789 36.6404 24.6871C36.6815 24.7281 36.7061 24.761 36.7307 24.802C37.0181 25.1058 37.4368 25.2782 37.8801 25.2782C38.3234 25.2782 38.7339 25.0894 39.0295 24.802C39.0787 24.7528 39.1116 24.7117 39.1526 24.6625C39.44 24.3587 39.8586 24.1863 40.302 24.1863C40.5483 24.1863 40.7699 24.2438 40.9752 24.3341C41.5253 24.5886 41.9193 25.1468 41.9193 25.7954C41.9193 26.444 41.5335 27.0023 40.9752 27.2568C40.7699 27.3471 40.5401 27.4046 40.302 27.4046C39.8504 27.4046 39.4482 27.2157 39.1526 26.9284C39.1116 26.8791 39.0705 26.8381 39.0295 26.7888C38.7421 26.485 38.3234 26.3127 37.8883 26.3127C37.4532 26.3127 37.0345 26.4933 36.7471 26.7888C36.7307 26.8052 36.7225 26.8134 36.7061 26.8381C36.6978 26.8463 36.6896 26.8627 36.665 26.8791C36.6486 26.8956 36.624 26.9202 36.6075 26.9448C36.5829 26.9694 36.5501 26.9941 36.5255 27.0187H36.5172C36.4598 27.0762 36.4023 27.1254 36.3366 27.1583C36.3366 27.1583 36.3284 27.1583 36.3284 27.1665C36.271 27.2075 36.2135 27.2322 36.156 27.2568C36.1478 27.265 36.1396 27.265 36.115 27.2732C36.0493 27.2978 35.9836 27.3307 35.9179 27.3471C35.9097 27.3471 35.9015 27.3471 35.9015 27.3553C35.844 27.3717 35.7784 27.3799 35.7209 27.3964C35.7045 27.3964 35.6799 27.4046 35.6634 27.4046C35.5978 27.4128 35.5239 27.421 35.4582 27.421C35.3843 27.421 35.3186 27.4128 35.2447 27.4046C35.2201 27.4046 35.1872 27.3964 35.1708 27.3964C35.1298 27.3881 35.0887 27.3799 35.0477 27.3717C35.0231 27.3635 34.982 27.3553 34.9574 27.3471C34.9163 27.3389 34.8835 27.3225 34.8507 27.306C34.6783 27.2404 34.5304 27.1501 34.3991 27.0269C34.202 26.8545 34.0625 26.641 33.9558 26.4029C33.9476 26.3783 33.9394 26.3455 33.9312 26.3209C33.923 26.2962 33.9147 26.2552 33.9065 26.2305C33.8983 26.1895 33.8901 26.1567 33.8819 26.1156C33.8736 26.091 33.8737 26.0581 33.8737 26.0335C33.8655 25.9678 33.8572 25.8939 33.8572 25.8283C33.8572 25.7544 33.8655 25.6887 33.8737 25.6148C33.8737 25.5984 33.8819 25.5737 33.8819 25.5573C33.8901 25.4999 33.8983 25.4342 33.9229 25.3767C33.9229 25.3685 33.923 25.3603 33.9312 25.3521C33.9476 25.2864 33.9804 25.2207 34.005 25.1551C34.0132 25.1468 34.0132 25.1386 34.0215 25.1304C34.0461 25.073 34.0789 25.0155 34.1118 24.9744C34.1118 24.9662 34.12 24.9662 34.12 24.958C34.1856 24.8677 34.2595 24.7692 34.3334 24.6871C34.3499 24.6707 34.3745 24.6625 34.3909 24.6378C34.3991 24.6296 34.4073 24.6214 34.4319 24.6132C34.4484 24.5968 34.473 24.5886 34.4894 24.5639C34.7932 24.2766 34.9656 23.8743 34.9656 23.4228C34.9656 22.9712 34.7768 22.5689 34.4894 22.2816C34.4402 22.2405 34.4073 22.2077 34.358 22.1666C34.3498 22.1666 34.3499 22.1585 34.3417 22.1585L34.3334 22.142C34.3252 22.1338 34.317 22.1256 34.317 22.1174C34.2759 22.0763 34.2431 22.0435 34.2103 21.9942C33.9229 21.6905 33.5206 21.5181 33.0691 21.5181C32.6175 21.5181 32.2153 21.7069 31.9279 21.9942C31.9197 22.0025 31.9115 22.0189 31.8869 22.0353C31.8786 22.0517 31.8622 22.0599 31.8458 22.0846C31.8294 22.101 31.8048 22.1256 31.7883 22.142C31.7637 22.1666 31.7309 22.1913 31.7063 22.2159H31.698C31.6406 22.2734 31.5831 22.3226 31.5175 22.3555C31.5092 22.3555 31.5092 22.3637 31.501 22.3637C31.4436 22.4048 31.3861 22.4294 31.3286 22.454C31.3204 22.4622 31.304 22.4622 31.2876 22.4704C31.2219 22.4951 31.1562 22.5279 31.0905 22.5443C31.0823 22.5443 31.0741 22.5443 31.0741 22.5525C31.0166 22.5689 30.951 22.5772 30.8853 22.5936C30.8689 22.5936 30.8442 22.6018 30.8278 22.6018C30.7621 22.61 30.6882 22.6182 30.6143 22.6182C30.5404 22.6182 30.4748 22.61 30.4009 22.6018C30.3762 22.6018 30.3516 22.5936 30.327 22.5936C30.2778 22.5854 30.2449 22.5772 30.1956 22.5689C30.171 22.5607 30.13 22.5525 30.1053 22.5443C30.0807 22.5361 30.0397 22.5279 30.015 22.5033C29.7687 22.4129 29.5553 22.2488 29.3911 22.0599C29.2761 21.9286 29.194 21.789 29.1284 21.6248C29.1119 21.5838 29.1037 21.5427 29.0791 21.5017C29.0709 21.477 29.0627 21.4442 29.0545 21.4114C29.0463 21.3703 29.038 21.3375 29.0298 21.2882C29.0298 21.2636 29.0216 21.239 29.0216 21.2143C29.0134 21.1486 29.0052 21.0748 29.0052 21.0091C29.0052 20.9434 29.0134 20.8695 29.0216 20.8038C29.0216 20.7874 29.0298 20.7628 29.0298 20.7464C29.038 20.6889 29.0462 20.6314 29.0709 20.574C29.0709 20.5657 29.0791 20.5493 29.0791 20.5329C29.0955 20.4672 29.1284 20.4015 29.153 20.3441C29.1612 20.3358 29.1612 20.3194 29.1694 20.303C29.194 20.2455 29.2269 20.1963 29.2515 20.1552C29.2597 20.147 29.2597 20.1388 29.2679 20.1306C29.3336 20.0403 29.3993 19.9418 29.4814 19.8597C29.4978 19.8515 29.506 19.8351 29.5306 19.8186C29.5553 19.8022 29.5553 19.794 29.5799 19.7776C29.5963 19.7612 29.6209 19.7529 29.6374 19.7283C29.9411 19.441 30.1135 19.0387 30.1135 18.5872C30.1135 18.1356 29.9247 17.7333 29.6374 17.4378C29.5881 17.3803 29.5306 17.3475 29.4896 17.2982H29.5142ZM17.2733 17.29C16.9859 17.5938 16.5673 17.7662 16.1239 17.7662C15.8694 17.7662 15.6395 17.7087 15.4343 17.6102C14.8924 17.3475 14.5148 16.7974 14.5148 16.157C14.5148 15.5167 14.8924 14.9666 15.4343 14.7039C15.6395 14.5971 15.8859 14.5479 16.1239 14.5479C16.5755 14.5479 16.9777 14.7367 17.2733 15.0241C17.3143 15.0733 17.3472 15.1144 17.3965 15.1636C17.6838 15.4674 18.1025 15.6398 18.5458 15.6398C18.9891 15.6398 19.4079 15.451 19.6952 15.1554C19.7445 15.1062 19.7773 15.0651 19.8184 15.0159C20.1057 14.7121 20.5244 14.5315 20.9677 14.5315C21.214 14.5315 21.4357 14.5889 21.641 14.6792C22.191 14.9338 22.5851 15.492 22.5851 16.1406C22.5851 16.7892 22.1992 17.3475 21.641 17.602C21.4357 17.6923 21.2058 17.7498 20.9677 17.7498C20.5162 17.7498 20.1139 17.5609 19.8266 17.2736C19.7855 17.2243 19.7445 17.1669 19.7034 17.134C19.4161 16.8303 18.9974 16.6578 18.554 16.6578C18.1107 16.6578 17.7002 16.8385 17.4128 17.134C17.3472 17.1915 17.3061 17.249 17.2733 17.29ZM5.41002 27.0762C5.41002 27.0762 5.36896 27.0515 5.35254 27.0269C5.33612 27.0187 5.32791 27.0023 5.30329 26.9859C5.27866 26.9612 5.24583 26.9202 5.21299 26.8955C5.16373 26.8381 5.13092 26.7806 5.08987 26.7231C5.08166 26.7149 5.08164 26.7067 5.07343 26.6821C5.0488 26.6328 5.01594 26.5918 4.99952 26.5425C4.99131 26.5261 4.98314 26.5179 4.98314 26.4933C4.95851 26.4358 4.93386 26.3701 4.91745 26.3127C4.90924 26.2962 4.90923 26.2716 4.90923 26.2552C4.90102 26.2059 4.88462 26.1649 4.88462 26.1156C4.88462 26.091 4.87641 26.0663 4.87641 26.0417C4.8682 25.9842 4.86819 25.9268 4.86819 25.8693V25.779C4.86819 25.7298 4.8682 25.6723 4.87641 25.6312C4.87641 25.5902 4.88458 25.5655 4.89279 25.5409C4.901 25.4999 4.90102 25.4752 4.90923 25.4342C4.91744 25.3931 4.92567 25.3685 4.93388 25.3275C4.94209 25.3028 4.95027 25.27 4.95848 25.2454C4.96669 25.2043 4.98311 25.1797 5.00774 25.1386C5.03237 25.073 5.07342 25.0073 5.11447 24.9498C5.12268 24.9334 5.13092 24.9252 5.13913 24.9088C5.16376 24.8595 5.20481 24.8185 5.24586 24.7774C5.27049 24.7528 5.30331 24.7199 5.32794 24.6953C5.35257 24.6707 5.37722 24.646 5.40185 24.6214C5.45111 24.5804 5.48393 24.5475 5.53319 24.5147C5.5414 24.5065 5.55781 24.4983 5.57422 24.4901C5.63169 24.449 5.68918 24.4244 5.74665 24.3997C5.75486 24.3997 5.76304 24.3915 5.77125 24.3915C5.79588 24.3833 5.82875 24.3751 5.85338 24.3505C5.89443 24.3341 5.92723 24.3259 5.96828 24.3094C5.99291 24.3012 6.02578 24.293 6.05041 24.2848C6.09146 24.2766 6.13249 24.2684 6.18175 24.2602C6.20638 24.2602 6.23103 24.252 6.25566 24.252C6.32134 24.2438 6.39523 24.2356 6.46912 24.2356C6.54301 24.2356 6.60869 24.2438 6.67437 24.252C6.69079 24.252 6.71543 24.2602 6.73185 24.2602C6.78931 24.2684 6.84675 24.2766 6.90422 24.3012C6.91243 24.3012 6.92063 24.3094 6.94526 24.3094C7.01094 24.3259 7.07665 24.3587 7.13412 24.3833C7.14233 24.3915 7.15874 24.3915 7.17516 24.3997C7.23263 24.4244 7.28189 24.4572 7.33115 24.4818C7.33936 24.49 7.34754 24.4901 7.35575 24.4983C7.44606 24.564 7.54459 24.6378 7.62669 24.7117C7.6349 24.7281 7.65131 24.7363 7.66773 24.761C7.67594 24.7692 7.68419 24.7856 7.70882 24.802C7.72524 24.8185 7.73345 24.8431 7.75808 24.8595C8.04542 25.1633 8.44768 25.3357 8.90743 25.3357C9.36718 25.3357 9.76128 25.1468 10.0568 24.8595C10.065 24.8513 10.0732 24.8431 10.0814 24.8184C10.0896 24.802 10.1061 24.7938 10.1225 24.7692C10.1389 24.7528 10.1635 24.7281 10.18 24.7117C10.2046 24.6871 10.2375 24.6625 10.2621 24.6378C10.377 24.5475 10.5002 24.4572 10.6315 24.3915H10.6479C10.6972 24.3751 10.7383 24.3505 10.7875 24.3341C10.7957 24.3341 10.8039 24.3258 10.8121 24.3258C10.8614 24.3094 10.9024 24.3012 10.9517 24.2848C10.9599 24.2848 10.9681 24.2766 10.9928 24.2766C11.042 24.2684 11.0831 24.2602 11.1323 24.252C11.1405 24.252 11.1569 24.252 11.1734 24.2437C11.2308 24.2355 11.2965 24.2356 11.354 24.2356C11.4115 24.2356 11.4689 24.2355 11.5346 24.2437H11.5593C11.6085 24.252 11.6495 24.252 11.6988 24.2684C11.707 24.2684 11.7152 24.2684 11.7152 24.2766C11.7645 24.2848 11.8055 24.3012 11.8548 24.3177C11.8548 24.3177 11.8602 24.3204 11.8712 24.3258C11.9204 24.3423 11.9615 24.3669 12.0108 24.3833H12.019C12.019 24.3833 12.0272 24.3833 12.0272 24.3915C12.0929 24.4162 12.1504 24.4572 12.216 24.4983C12.216 24.4983 12.2243 24.4983 12.2243 24.5065C12.331 24.5721 12.4213 24.6461 12.4951 24.7281C12.5034 24.7446 12.5198 24.7528 12.5362 24.7774C12.5526 24.7938 12.5773 24.8184 12.5855 24.8349C12.5937 24.8431 12.6019 24.8595 12.6101 24.8759C12.8974 25.1797 13.3162 25.3521 13.7595 25.3521C14.2028 25.3521 14.6215 25.1633 14.9088 24.8759C14.9253 24.8595 14.9499 24.8349 14.9663 24.8184C14.9745 24.8102 14.9828 24.802 14.991 24.7938C15.0074 24.7774 15.0156 24.7528 15.0402 24.7363C15.1223 24.6542 15.2208 24.5804 15.3111 24.5147C15.3193 24.5147 15.3193 24.5065 15.3276 24.5065C15.385 24.4654 15.4425 24.4408 15.5 24.4162C15.5082 24.4162 15.5164 24.408 15.5246 24.408C15.5903 24.3833 15.6559 24.3505 15.7216 24.3341C15.7298 24.3341 15.7381 24.3341 15.7463 24.3258C15.8037 24.3094 15.8612 24.3012 15.9269 24.2848C15.9433 24.2848 15.9679 24.2766 15.9843 24.2766C16.05 24.2684 16.1239 24.2602 16.1978 24.2602C16.2717 24.2602 16.3374 24.2684 16.403 24.2766C16.4277 24.2766 16.4523 24.2848 16.477 24.2848C16.5262 24.293 16.559 24.3012 16.6083 24.3094C16.6329 24.3176 16.6658 24.3176 16.6822 24.3258C16.7397 24.3423 16.7889 24.3669 16.8382 24.3833C17.0517 24.4736 17.2487 24.6214 17.3965 24.7938C17.4375 24.8349 17.4621 24.8759 17.5032 24.9252C17.5114 24.9416 17.5278 24.9498 17.5442 24.9744C17.5853 25.0319 17.6099 25.0894 17.651 25.1551C17.651 25.1633 17.6592 25.1633 17.6592 25.1715C17.6674 25.1879 17.6756 25.2207 17.6838 25.2372C17.7002 25.2782 17.7248 25.3193 17.733 25.3603C17.7413 25.3849 17.7495 25.4178 17.7577 25.4424C17.7659 25.4917 17.7741 25.5245 17.7823 25.5738C17.7823 25.5984 17.7905 25.623 17.7905 25.6477C17.7987 25.7215 17.807 25.7872 17.807 25.8611C17.807 25.935 17.7987 26.0007 17.7905 26.0746C17.7905 26.091 17.7823 26.1156 17.7823 26.132C17.7741 26.1895 17.7659 26.247 17.7413 26.3044C17.7413 26.3126 17.733 26.3209 17.733 26.3291C17.7166 26.3947 17.6838 26.4604 17.6592 26.5179C17.651 26.5343 17.6427 26.5425 17.6427 26.5672C17.6181 26.6164 17.5853 26.6739 17.5607 26.7149C17.5525 26.7231 17.5524 26.7313 17.5442 26.7396C17.5032 26.797 17.4621 26.8545 17.4128 26.912H17.4047C17.4047 26.912 17.3554 26.9776 17.3308 26.9941C17.3144 27.0105 17.2897 27.0351 17.2651 27.0515C17.2569 27.0597 17.2487 27.068 17.224 27.0762C17.2076 27.0844 17.1994 27.1008 17.1748 27.1172C16.871 27.4045 16.6986 27.8069 16.6986 28.2666C16.6986 28.7264 16.8874 29.1204 17.183 29.416C17.2323 29.4652 17.2733 29.4981 17.3226 29.5391C17.6263 29.8265 17.807 30.2452 17.807 30.6885C17.807 30.9348 17.7495 31.1565 17.6592 31.3617C17.4047 31.9118 16.8464 32.3058 16.1978 32.3058C15.5492 32.3058 14.991 31.92 14.7283 31.3617C14.6379 31.1565 14.5805 30.9266 14.5805 30.6885C14.5805 30.237 14.7693 29.8347 15.0566 29.5473C15.1059 29.5063 15.147 29.4652 15.1962 29.4242C15.4836 29.1369 15.6724 28.7181 15.6724 28.2748C15.6724 27.8315 15.4836 27.421 15.1962 27.1336H15.188C15.188 27.1336 15.1141 27.0597 15.0731 27.0269C15.0648 27.0187 15.0567 27.0105 15.0485 27.0023H15.0402C15.0402 27.0023 15.0402 26.9941 15.032 26.9941C15.032 26.9858 15.0238 26.9859 15.0156 26.9776C14.9745 26.9366 14.9499 26.9037 14.9088 26.8627H14.9006C14.6133 26.5507 14.1946 26.3783 13.7513 26.3783C13.3079 26.3783 12.8974 26.5589 12.6101 26.8545C12.6019 26.8627 12.5937 26.8791 12.5691 26.8955C12.5526 26.912 12.528 26.9366 12.5116 26.953C12.5034 26.9694 12.487 26.9776 12.4705 27.0023C12.4459 27.0269 12.413 27.0597 12.3884 27.0844H12.3802C12.3228 27.1418 12.2653 27.1911 12.1996 27.2239C12.0518 27.3307 11.8712 27.3963 11.6906 27.4374H11.6742C11.6249 27.4456 11.5839 27.4538 11.5346 27.462H11.5099C11.4525 27.4702 11.395 27.4702 11.3294 27.4702C11.2719 27.4702 11.2062 27.4702 11.1488 27.462H11.1241C11.0748 27.4538 11.0174 27.4456 10.9763 27.4374C10.9763 27.4374 10.9708 27.4347 10.9599 27.4292C10.9024 27.421 10.8532 27.4046 10.8121 27.3799H10.8039C10.7547 27.3635 10.7136 27.3389 10.6644 27.3224H10.6561C10.6561 27.3224 10.6479 27.3225 10.6479 27.3143C10.5166 27.2486 10.3934 27.1747 10.2949 27.0762C10.2949 27.0762 10.2894 27.0707 10.2785 27.0598C10.2785 27.0598 10.2292 27.0187 10.2128 26.9941C10.1964 26.9776 10.1882 26.953 10.1636 26.9366C10.1471 26.9202 10.1225 26.8955 10.1061 26.8709C10.0979 26.8627 10.0896 26.8545 10.0814 26.8463C9.79409 26.5425 9.37542 26.3701 8.93209 26.3701C8.48875 26.3701 8.07825 26.5507 7.7909 26.8463C7.7909 26.8463 7.79089 26.8545 7.78268 26.8545C7.75805 26.8956 7.717 26.9284 7.67595 26.9694C7.66774 26.9776 7.66777 26.9859 7.65956 26.9859C7.65956 26.9859 7.65135 26.9858 7.65135 26.9941C7.65135 26.9941 7.65134 27.0023 7.64313 27.0023C7.63492 27.0105 7.62669 27.0187 7.61848 27.0187C7.57743 27.0433 7.54458 27.0844 7.51174 27.109C7.51174 27.109 7.50358 27.109 7.50358 27.1172C7.19981 27.4045 7.02739 27.8069 7.02739 28.2666C7.02739 28.7264 7.21619 29.1204 7.51174 29.416C7.561 29.4652 7.60209 29.4981 7.65135 29.5391C7.95511 29.8265 8.12748 30.2452 8.12748 30.6885C8.12748 30.9348 8.07002 31.1565 7.97971 31.3617C7.72521 31.9118 7.16696 32.3058 6.51838 32.3058C5.8698 32.3058 5.3115 31.92 5.057 31.3617C4.96669 31.1565 4.90923 30.9266 4.90923 30.6885C4.90923 30.237 5.09807 29.8347 5.38541 29.5473C5.43467 29.5063 5.49213 29.4652 5.52497 29.4242C5.81231 29.1369 6.00115 28.7181 6.00115 28.2748C6.00115 27.8315 5.81231 27.421 5.52497 27.1336C5.45108 27.068 5.43466 27.0597 5.41824 27.0515L5.41002 27.0762ZM12.8974 11.3132C12.8974 10.6646 12.5116 10.1063 11.9533 9.85184C11.7481 9.76153 11.5182 9.70407 11.2801 9.70407C10.8286 9.70407 10.4262 9.89289 10.1307 10.1884C10.0896 10.2377 10.0568 10.2788 10.0076 10.328C9.72023 10.6318 9.30151 10.8124 8.85817 10.8124C8.41484 10.8124 8.00438 10.6236 7.70882 10.3362C7.6924 10.3198 7.68419 10.2952 7.65956 10.2788C7.65136 10.2706 7.64312 10.2623 7.63491 10.2377C7.61849 10.2213 7.61028 10.1967 7.58565 10.1884C7.50356 10.1063 7.41323 10.0325 7.31471 9.97501C7.3065 9.9668 7.29832 9.96678 7.29011 9.95857C7.24085 9.93394 7.18339 9.9011 7.14234 9.87647C7.13413 9.86826 7.11767 9.86827 7.10125 9.86006C7.03557 9.83543 6.97812 9.80259 6.91244 9.78617C6.90423 9.78617 6.88782 9.77795 6.8714 9.77795C6.81393 9.76153 6.75644 9.75333 6.69897 9.73691C6.68255 9.73691 6.65792 9.7287 6.6415 9.7287C6.57582 9.72049 6.50193 9.71229 6.43625 9.71229C6.36236 9.71229 6.29668 9.72049 6.231 9.7287C6.20638 9.7287 6.17356 9.73692 6.14893 9.74513C6.10788 9.75334 6.07503 9.76155 6.03398 9.76976C5.99293 9.77797 5.96829 9.78618 5.92724 9.79439L5.84516 9.81902C5.73844 9.86007 5.63989 9.90932 5.55779 9.96679C5.54137 9.975 5.53316 9.99141 5.50853 10.0078C5.46748 10.0325 5.42646 10.0653 5.38541 10.0981C5.34436 10.1228 5.31152 10.1638 5.27868 10.2049C5.26226 10.2213 5.25405 10.2295 5.22942 10.2541C5.10628 10.3937 5.00773 10.5579 4.94205 10.7303C4.93384 10.7467 4.92565 10.7796 4.91745 10.796C4.90924 10.837 4.901 10.8699 4.89279 10.9109C4.88458 10.9355 4.87641 10.9766 4.87641 11.0012C4.8682 11.0423 4.86818 11.0669 4.85997 11.1079C4.85176 11.1572 4.85175 11.2147 4.85175 11.2557V11.346C4.85175 11.4035 4.85997 11.461 4.85997 11.5184C4.85997 11.5431 4.86819 11.5677 4.86819 11.5924C4.8764 11.6416 4.88458 11.6826 4.89279 11.7319C4.901 11.7483 4.90101 11.773 4.90101 11.7894C4.91743 11.8551 4.95028 11.9125 4.9667 11.97C4.97491 11.9864 4.98314 11.9946 4.98314 12.0193C5.00777 12.0685 5.03237 12.1096 5.057 12.1588C5.06521 12.167 5.07343 12.1835 5.07343 12.1999C5.11448 12.2573 5.14734 12.3148 5.1966 12.3723H5.20477C5.20477 12.3723 5.26227 12.4462 5.2869 12.479C5.30332 12.4872 5.31153 12.5036 5.33616 12.52C5.35258 12.5365 5.37721 12.5611 5.39363 12.5693C5.41005 12.5775 5.41826 12.5939 5.44289 12.6104C5.74665 12.8977 5.91903 13.3164 5.91903 13.7515C5.91903 14.1867 5.73023 14.6054 5.44289 14.8927C5.39363 14.942 5.35254 14.9748 5.30329 15.0159C4.99952 15.3032 4.82715 15.7219 4.82715 16.157C4.82715 16.4033 4.88461 16.625 4.97492 16.8302C5.22943 17.3803 5.78767 17.7662 6.43625 17.7662C7.08483 17.7662 7.64313 17.3803 7.89763 16.8302C7.98794 16.625 8.0454 16.3951 8.0454 16.157C8.0454 15.7055 7.85656 15.295 7.56922 15.0076C7.51996 14.9666 7.47892 14.9338 7.42966 14.8845C7.1259 14.5971 6.94526 14.1785 6.94526 13.7351C6.94526 13.2918 7.1341 12.8813 7.42145 12.5857H7.42966C7.42966 12.5857 7.49533 12.5201 7.51996 12.5036C7.52817 12.4954 7.54458 12.4872 7.561 12.4626H7.56922C7.56922 12.4626 7.56923 12.4544 7.57744 12.4462C7.6267 12.3969 7.65955 12.3559 7.7006 12.3066C7.98795 12.0028 8.40662 11.8304 8.84174 11.8304C9.27686 11.8304 9.69559 12.0193 9.99114 12.3066C10.0404 12.3559 10.0733 12.3969 10.1143 12.4462C10.4017 12.7499 10.8203 12.9223 11.2554 12.9223C11.5017 12.9223 11.7234 12.8649 11.9287 12.7746C12.5116 12.5529 12.8974 11.9864 12.8974 11.3296V11.3132Z" fill="#F05A28"/>
</g>
</svg>
