<svg width="33" height="32" viewBox="0 0 33 32" fill="none" xmlns="http://www.w3.org/2000/svg">
<path d="M28.8527 7.28872L16.8527 3.28872C16.6986 3.23726 16.5319 3.23726 16.3777 3.28872L4.37773 7.28872C4.2285 7.33854 4.09872 7.43403 4.00675 7.56167C3.91477 7.68931 3.86527 7.84264 3.86523 7.99997V18C3.86523 18.1989 3.94425 18.3896 4.0849 18.5303C4.22556 18.671 4.41632 18.75 4.61523 18.75C4.81415 18.75 5.00491 18.671 5.14556 18.5303C5.28622 18.3896 5.36523 18.1989 5.36523 18V9.03997L10.2002 10.6525C9.59052 11.5535 9.17735 12.5729 8.98762 13.6442C8.7979 14.7155 8.83586 15.8147 9.09904 16.8704C9.36221 17.9261 9.84471 18.9145 10.5151 19.7713C11.1856 20.6282 12.0289 21.3343 12.9902 21.8437C10.584 22.66 8.49023 24.2925 6.99023 26.5937C6.90401 26.7589 6.88234 26.9502 6.92943 27.1304C6.97653 27.3107 7.08902 27.4669 7.24501 27.5688C7.40099 27.6707 7.58931 27.7108 7.77328 27.6815C7.95725 27.6521 8.1237 27.5553 8.24023 27.41C10.174 24.4487 13.2252 22.75 16.6152 22.75C20.0052 22.75 23.0565 24.4487 24.9902 27.41C25.1061 27.5584 25.2735 27.6579 25.4592 27.6886C25.645 27.7193 25.8355 27.679 25.9929 27.5757C26.1503 27.4724 26.2632 27.3137 26.309 27.1311C26.3548 26.9485 26.3303 26.7553 26.2402 26.59C24.7402 24.2925 22.649 22.66 20.2402 21.84C21.2011 21.33 22.0438 20.6235 22.7136 19.7664C23.3834 18.9093 23.8652 17.9207 24.1278 16.8651C24.3904 15.8095 24.4278 14.7105 24.2376 13.6394C24.0475 12.5684 23.6339 11.5494 23.024 10.6487L28.8527 8.71122C29.0019 8.66132 29.1316 8.5658 29.2235 8.43817C29.3153 8.31053 29.3648 8.15724 29.3648 7.99997C29.3648 7.8427 29.3153 7.68941 29.2235 7.56177C29.1316 7.43414 29.0019 7.33862 28.8527 7.28872ZM22.8652 15C22.8657 15.9959 22.6281 16.9775 22.1723 17.863C21.7166 18.7485 21.0558 19.5123 20.2451 20.0906C19.4343 20.669 18.4971 21.0453 17.5115 21.1881C16.5259 21.331 15.5204 21.2362 14.5788 20.9117C13.6372 20.5872 12.7869 20.0424 12.0985 19.3226C11.4101 18.6029 10.9037 17.7291 10.6215 16.774C10.3392 15.819 10.2893 14.8103 10.4759 13.832C10.6624 12.8537 11.0801 11.9341 11.694 11.15L16.3777 12.7112C16.5319 12.7627 16.6986 12.7627 16.8527 12.7112L21.5365 11.15C22.3987 12.2479 22.8667 13.6039 22.8652 15ZM16.6152 11.21L6.99023 7.99997L16.6152 4.78997L26.2402 7.99997L16.6152 11.21Z" fill="#241442"/>
</svg>
